<?xml version="1.0" standalone="no"?>
<!DOCTYPE svg PUBLIC "-//W3C//DTD SVG 20010904//EN"
 "http://www.w3.org/TR/2001/REC-SVG-20010904/DTD/svg10.dtd">
<svg version="1.0" xmlns="http://www.w3.org/2000/svg"
 width="474.000000pt" height="474.000000pt" viewBox="0 0 474.000000 474.000000"
 preserveAspectRatio="xMidYMid meet">
<metadata>
Created by potrace 1.14, written by Peter Selinger 2001-2017
</metadata>
<g transform="translate(0.000000,474.000000) scale(0.100000,-0.100000)"
fill="#000000" stroke="none">
<path d="M644 4733 l628 -3 -5 -23 c-3 -12 -1 -31 3 -42 7 -15 9 -10 9 22 l1
41 325 0 325 1 0 -25 c0 -21 4 -24 40 -24 29 0 40 -4 40 -15 0 -8 -7 -15 -15
-15 -8 0 -12 -6 -9 -14 3 -9 -3 -17 -15 -21 -43 -13 -13 -33 54 -36 24 -1 25
-3 8 -6 -17 -3 -23 -11 -23 -30 0 -22 2 -24 16 -12 13 11 19 8 40 -16 18 -21
24 -24 24 -12 0 13 9 17 38 17 21 0 43 5 50 12 7 7 40 13 74 14 81 3 78 3 77
12 -1 4 -1 15 0 25 1 24 47 23 61 -3 8 -15 22 -20 58 -21 38 -1 42 -2 22 -9
l-25 -8 25 -2 c18 -2 14 -4 -15 -10 -22 -4 -48 -11 -58 -15 -12 -5 -16 -3 -12
7 3 7 -1 22 -9 33 -12 16 -16 17 -30 6 -22 -19 -20 -52 4 -58 11 -3 20 -9 20
-14 0 -13 -11 -11 -29 5 -9 8 -32 21 -52 29 -29 12 -36 12 -36 1 0 -7 14 -16
30 -20 16 -3 38 -17 50 -30 21 -25 47 -32 47 -13 0 33 74 62 122 48 18 -5 41
-6 50 -3 13 4 18 0 18 -15 0 -11 -4 -23 -10 -26 -5 -3 -10 -11 -10 -16 0 -6 4
-8 9 -5 8 6 26 -21 23 -35 -2 -12 33 -4 41 9 4 6 14 12 22 12 9 0 12 6 9 18
-5 13 -4 14 4 3 7 -10 17 -11 38 -4 44 14 106 -24 118 -73 7 -25 25 -31 43
-13 14 14 69 15 86 1 10 -8 13 -6 13 9 0 18 -29 26 -75 19 -12 -1 -12 1 -3 12
15 19 4 60 -17 56 -8 -2 -20 -13 -26 -25 -11 -22 -11 -22 -43 8 -18 17 -36 28
-41 25 -5 -3 -11 0 -14 8 -5 11 1 12 29 4 25 -7 39 -6 50 3 19 16 18 4 -2 -15
-21 -22 -2 -20 22 2 16 15 64 29 50 15 -3 -3 1 -12 9 -20 8 -8 15 -22 15 -32
0 -9 13 -21 30 -28 25 -10 30 -16 26 -37 -3 -18 1 -27 14 -31 11 -4 17 -12 13
-21 -7 -18 2 -18 21 2 9 8 16 11 16 6 0 -5 -6 -15 -14 -21 -9 -7 -12 -28 -11
-57 3 -53 8 -60 27 -42 7 7 18 14 23 14 6 1 25 4 43 8 23 4 31 2 26 -5 -4 -8
1 -9 16 -4 15 5 20 4 16 -4 -4 -6 -2 -11 3 -11 6 0 11 5 11 11 0 6 9 8 21 4
15 -5 19 -4 15 4 -4 6 -3 11 1 11 5 0 13 -10 18 -22 7 -16 19 -23 40 -24 50
-1 55 -3 48 -21 -4 -9 -2 -14 3 -10 6 4 9 -5 6 -23 -3 -21 2 -35 19 -52 24
-24 32 -79 16 -105 -5 -8 -4 -13 2 -13 6 0 11 5 11 12 0 8 6 7 16 -4 18 -18
10 -42 -12 -34 -8 3 -14 2 -14 -3 0 -4 -11 -20 -26 -36 -14 -15 -22 -30 -19
-34 4 -3 11 2 17 12 9 18 10 18 24 0 13 -17 14 -16 11 7 -2 14 -2 20 0 14 2
-7 20 -15 39 -18 20 -4 34 -13 34 -21 0 -8 4 -15 9 -15 5 0 11 -10 13 -22 3
-21 4 -21 15 5 12 25 11 28 -5 25 -11 -2 -18 4 -20 18 -2 12 -13 25 -25 29
l-22 8 23 4 c12 2 22 9 22 14 0 5 11 9 24 9 14 0 28 5 31 10 12 20 25 9 26
-22 1 -24 3 -27 6 -10 3 17 11 22 34 22 26 0 29 -3 29 -34 0 -36 -20 -52 -47
-37 -11 6 -22 2 -34 -10 -26 -26 -24 -32 6 -13 13 8 29 13 35 9 13 -8 13 -68
-1 -82 -8 -8 -7 -13 2 -18 7 -5 10 -4 6 2 -4 6 0 14 9 17 11 4 14 1 9 -13 -3
-11 0 -21 8 -24 14 -5 17 26 4 39 -11 11 -8 72 4 80 6 3 22 1 35 -7 32 -17 42
-4 36 49 -3 33 -8 42 -24 42 -10 0 -16 5 -13 10 3 6 17 10 31 10 25 0 33 15
12 23 -19 6 30 47 64 54 42 8 36 36 -12 51 -53 16 -60 15 -60 -9 0 -11 -5 -17
-10 -14 -6 4 -7 23 -4 45 5 29 2 43 -10 56 -13 12 -14 19 -5 30 7 9 8 14 1 14
-5 0 3 14 19 31 16 17 29 36 29 43 0 7 -4 6 -9 -3 -6 -9 -11 -10 -15 -2 -4 6
-4 11 0 11 4 0 -3 11 -16 25 -22 23 -25 24 -42 8 -23 -21 -25 2 -1 25 16 16
21 18 51 21 6 0 12 6 12 12 0 5 -4 8 -9 5 -5 -4 -11 -1 -13 5 -2 6 -16 12 -31
12 -15 0 -30 3 -33 8 -3 5 13 9 35 9 l41 0 0 40 c0 22 4 40 10 40 5 0 7 7 4
15 -4 8 -10 15 -15 15 -5 0 -9 -7 -9 -15 0 -9 -9 -15 -21 -15 -18 0 -19 3 -9
15 7 8 10 25 6 40 -5 18 -2 25 9 25 8 0 15 -7 15 -15 0 -8 4 -15 9 -15 5 0 11
7 15 15 3 8 2 15 -2 15 -4 0 -6 19 -6 42 1 35 9 50 37 81 l36 37 100 0 c74 0
101 -3 101 -12 0 -10 2 -10 8 -1 6 10 101 13 398 16 214 1 -673 2 -1971 2
-1298 0 -2077 -1 -1731 -2z m1766 -42 c0 -10 -87 -20 -107 -13 -7 2 -10 8 -7
13 7 12 114 12 114 0z m1200 -76 c0 -25 -4 -45 -9 -45 -5 0 -11 20 -13 45 -2
31 1 45 9 45 9 0 13 -16 13 -45z m-1464 28 c-3 -4 -35 -12 -71 -18 -60 -12
-65 -11 -65 5 0 16 9 18 71 18 39 0 68 -2 65 -5z m-6 -63 c11 -7 7 -10 -17
-10 -18 0 -33 5 -33 10 0 13 30 13 50 0z m67 -16 c-3 -3 -12 -4 -19 -1 -8 3
-5 6 6 6 11 1 17 -2 13 -5z m733 -17 c0 -18 -2 -19 -10 -7 -10 16 -14 9 -23
-35 -3 -17 -5 -16 -11 7 -10 36 -3 53 23 55 15 1 21 -4 21 -20z m0 -47 c0 -5
-5 -10 -11 -10 -5 0 -7 5 -4 10 3 6 8 10 11 10 2 0 4 -4 4 -10z m95 -250 c3
-5 -1 -10 -10 -10 -9 0 -13 5 -10 10 3 6 8 10 10 10 2 0 7 -4 10 -10z m62 -16
c-3 -3 -12 -4 -19 -1 -8 3 -5 6 6 6 11 1 17 -2 13 -5z m173 -4 c0 -5 -2 -10
-4 -10 -3 0 -8 5 -11 10 -3 6 -1 10 4 10 6 0 11 -4 11 -10z m340 -31 c0 -18
-2 -19 -15 -9 -15 12 -12 30 6 30 5 0 9 -10 9 -21z m-260 -69 c0 -5 -5 -10
-11 -10 -5 0 -7 5 -4 10 3 6 8 10 11 10 2 0 4 -4 4 -10z m12 -44 c7 4 8 2 4
-5 -9 -13 -26 -5 -25 12 0 9 2 8 6 -1 2 -6 10 -9 15 -6z m103 -45 c3 -5 1 -12
-5 -16 -5 -3 -10 1 -10 9 0 18 6 21 15 7z m165 -57 c0 -8 -4 -14 -10 -14 -5 0
-10 9 -10 21 0 11 5 17 10 14 6 -3 10 -13 10 -21z"/>
<path d="M1211 4684 c0 -11 3 -14 6 -6 3 7 2 16 -1 19 -3 4 -6 -2 -5 -13z"/>
<path d="M1310 4660 c-9 -6 -10 -10 -3 -10 6 0 15 5 18 10 8 12 4 12 -15 0z"/>
<path d="M3690 4635 c0 -8 5 -15 10 -15 6 0 10 7 10 15 0 8 -4 15 -10 15 -5 0
-10 -7 -10 -15z"/>
<path d="M1903 4545 c2 -26 6 -30 27 -27 14 2 32 10 40 18 12 12 11 14 -12 14
-14 0 -28 -6 -31 -12 -3 -8 -9 -3 -16 12 -11 25 -11 25 -8 -5z"/>
<path d="M1105 4550 c-12 -5 -14 -9 -6 -9 27 -2 -30 -50 -61 -53 l-30 -3 20
-25 c19 -22 21 -23 22 -6 0 18 12 19 75 6 23 -5 55 1 55 10 0 5 -11 12 -25 16
-23 6 -32 29 -26 67 1 8 2 8 -24 -3z"/>
<path d="M1846 4537 c3 -10 9 -15 12 -12 3 3 0 11 -7 18 -10 9 -11 8 -5 -6z"/>
<path d="M1870 4535 c0 -8 5 -15 10 -15 6 0 10 7 10 15 0 8 -4 15 -10 15 -5 0
-10 -7 -10 -15z"/>
<path d="M2190 4522 c-8 -3 -22 -12 -30 -21 -35 -37 -49 -44 -65 -31 -9 7 -18
10 -22 6 -3 -3 0 -6 8 -6 11 0 11 -2 -1 -10 -13 -8 -12 -10 4 -10 13 0 16 -5
12 -17 -4 -13 -1 -12 13 5 11 12 22 22 25 22 4 0 75 46 84 55 7 7 -14 12 -28
7z"/>
<path d="M1798 4513 c7 -3 16 -2 19 1 4 3 -2 6 -13 5 -11 0 -14 -3 -6 -6z"/>
<path d="M1710 4490 c0 -5 7 -10 15 -10 8 0 15 5 15 10 0 6 -7 10 -15 10 -8 0
-15 -4 -15 -10z"/>
<path d="M1908 4488 c5 -5 16 -8 23 -6 8 3 3 7 -10 11 -17 4 -21 3 -13 -5z"/>
<path d="M1984 4493 c10 -11 37 -12 30 -2 -3 5 -12 9 -21 9 -9 0 -13 -3 -9 -7z"/>
<path d="M1210 4480 c0 -5 4 -10 9 -10 6 0 13 5 16 10 3 6 -1 10 -9 10 -9 0
-16 -4 -16 -10z"/>
<path d="M1800 4480 c0 -5 5 -10 11 -10 5 0 7 5 4 10 -3 6 -8 10 -11 10 -2 0
-4 -4 -4 -10z"/>
<path d="M2224 4480 c-49 -20 -84 -116 -53 -147 16 -16 4 -30 -31 -35 -29 -4
-30 -3 -30 33 0 51 -53 99 -110 99 -21 0 -42 -4 -45 -10 -4 -6 10 -10 35 -10
91 0 138 -113 56 -134 -48 -12 -77 24 -42 53 16 13 32 -2 21 -19 -3 -5 -2 -10
3 -10 14 0 23 28 11 35 -5 4 -7 10 -4 15 6 10 -36 0 -52 -13 -16 -12 -17 -59
-1 -75 9 -9 8 -12 -8 -12 -11 0 -24 -4 -29 -9 -6 -5 -20 -12 -32 -16 -19 -5
-23 -2 -23 15 0 27 -44 48 -68 33 -23 -14 -22 -57 1 -61 16 -3 17 -1 5 17 -15
24 -7 35 21 26 28 -9 26 -41 -4 -61 -44 -29 -94 3 -95 61 0 29 21 71 44 87 7
5 7 8 1 8 -5 -1 -17 -6 -26 -13 -47 -36 -53 -115 -12 -153 l28 -26 -24 -19
c-27 -22 -41 -24 -41 -6 0 21 -43 56 -77 63 -37 7 -99 -11 -107 -32 -5 -13 -3
-13 16 1 49 34 130 9 143 -45 8 -35 -37 -80 -63 -64 -23 15 -22 48 2 52 15 3
18 0 13 -17 -3 -12 -1 -19 4 -15 5 3 9 14 9 25 0 14 -7 19 -30 19 -32 0 -37 9
-19 27 9 9 7 11 -7 8 -11 -1 -17 -9 -15 -16 3 -8 4 -29 3 -48 -1 -19 4 -41 12
-50 13 -14 12 -20 -12 -48 -28 -31 -28 -31 -51 -12 -13 11 -29 19 -37 19 -8 0
-13 3 -13 8 4 21 -2 42 -11 42 -10 0 -9 -4 12 -41 1 -4 -5 -15 -14 -26 -19
-21 -21 -63 -2 -56 7 3 11 10 8 17 -3 7 2 18 9 25 12 9 18 8 31 -4 20 -21 20
-27 -3 -53 -42 -50 -111 -11 -111 63 0 28 7 48 20 63 23 25 15 29 -14 7 -13
-10 -21 -31 -24 -67 -5 -62 19 -102 68 -113 l30 -6 -22 -30 -22 -29 -21 20
c-28 26 -90 26 -132 0 -18 -11 -33 -24 -33 -29 0 -5 -3 -16 -6 -25 -3 -8 11 1
31 19 45 43 90 47 125 10 20 -22 22 -27 10 -55 -14 -33 -56 -42 -67 -14 -8 20
17 36 34 22 9 -7 13 -7 13 0 0 17 -19 24 -44 18 -19 -5 -22 -11 -18 -36 2 -18
13 -35 26 -42 11 -6 22 -11 23 -12 1 -1 -4 -19 -11 -41 -13 -38 -15 -39 -55
-36 -36 2 -41 0 -47 -23 -8 -32 1 -46 29 -45 22 0 22 0 -1 10 -26 10 -25 32 2
37 28 6 47 -17 39 -47 -8 -33 -20 -41 -60 -41 -45 0 -86 50 -81 101 2 21 0 35
-4 33 -5 -3 -8 -25 -8 -49 0 -35 6 -52 32 -81 27 -31 37 -35 67 -32 l36 3 0
-176 0 -176 -35 23 c-92 63 -244 2 -286 -113 -7 -21 -13 -53 -14 -70 0 -31 -2
-33 -37 -33 -69 -1 -172 -45 -215 -92 -56 -62 -70 -94 -75 -178 -5 -69 1 -111
23 -164 7 -19 7 -19 -16 -3 -28 20 -55 21 -99 6 -62 -22 -80 -108 -36 -173
l24 -36 -134 0 c-113 0 -135 -2 -135 -15 0 -13 237 -15 2070 -15 1833 0 2070
2 2070 15 0 13 -21 15 -132 15 l-132 0 22 20 c32 30 48 92 33 129 -19 44 -45
63 -95 68 -38 5 -48 2 -70 -20 -32 -32 -34 -79 -6 -107 40 -40 104 -14 98 39
-2 21 -9 27 -34 29 -33 3 -49 -14 -38 -43 7 -17 40 -20 47 -5 3 6 4 5 3 -2 -4
-19 -44 -22 -61 -4 -35 35 0 96 54 96 35 0 77 -35 86 -71 8 -32 -8 -74 -41
-104 -23 -21 -37 -25 -90 -25 -35 0 -64 4 -64 8 0 5 -12 15 -26 22 -42 23 -48
45 -18 75 14 14 39 56 57 93 28 58 32 77 31 147 0 94 -15 135 -73 198 -48 51
-120 86 -196 94 l-53 6 -5 50 c-8 63 -47 120 -107 158 -57 36 -144 40 -194 10
l-31 -20 0 170 0 169 36 0 c65 0 116 84 91 150 -8 21 -10 18 -10 -25 0 -41 -5
-53 -27 -72 -26 -23 -69 -30 -93 -14 -8 4 -14 23 -15 42 -2 25 2 34 17 37 30
6 45 -17 22 -34 -19 -14 -19 -14 1 -14 28 0 37 15 29 46 -5 20 -12 24 -47 24
-37 0 -41 3 -55 36 -8 20 -14 37 -12 39 2 1 13 8 26 14 18 10 22 19 20 44 -2
27 -8 33 -30 35 -24 3 -28 0 -27 -20 1 -18 2 -19 6 -5 6 24 27 16 31 -11 5
-33 -41 -30 -56 3 -7 14 -12 29 -12 34 0 18 43 51 67 51 33 0 90 -38 97 -64 3
-11 8 -18 11 -14 11 11 -28 76 -52 87 -38 17 -97 13 -120 -8 -20 -19 -21 -19
-41 9 l-22 29 31 6 c61 14 90 113 49 165 -15 20 -20 21 -20 8 0 -9 5 -20 10
-23 17 -11 11 -71 -11 -99 -24 -31 -68 -35 -92 -8 -22 24 -21 49 2 61 21 12
48 -10 36 -29 -3 -5 -1 -10 4 -10 15 0 14 43 -1 58 -18 18 -46 15 -64 -7 -16
-18 -18 -18 -48 13 -31 31 -31 31 -13 57 24 33 9 69 -27 69 -30 0 -40 -24 -18
-42 15 -11 16 -11 4 3 -10 14 -10 18 2 22 21 8 37 -13 25 -35 -13 -24 -31 -23
-57 5 -29 31 -28 61 4 86 36 28 91 27 121 -1 13 -12 23 -17 23 -11 0 20 -39
45 -78 50 -48 6 -99 -18 -112 -52 -11 -30 -15 -30 -45 -7 l-23 19 29 27 c40
38 40 89 0 136 -34 41 -52 36 -19 -5 46 -59 12 -146 -51 -130 -41 10 -58 59
-25 72 23 9 40 -13 24 -32 -10 -12 -10 -15 3 -15 21 0 32 37 17 55 -26 31 -91
8 -82 -28 4 -14 1 -18 -9 -14 -8 3 -31 11 -51 18 -33 10 -36 14 -27 31 16 29
3 67 -26 74 -31 8 -45 -2 -44 -29 1 -16 3 -17 6 -5 6 23 29 30 44 12 30 -36
-38 -65 -77 -33 -23 19 -17 64 12 93 21 20 36 26 73 26 33 0 42 3 31 10 -30
20 -84 11 -120 -19 -29 -24 -35 -35 -35 -69 0 -22 -4 -38 -10 -37 -5 2 -23 6
-39 10 -26 6 -27 7 -12 24 9 10 16 34 16 54 0 46 -56 107 -98 107 l-27 -1 30
-13 c65 -29 89 -86 55 -129 -34 -43 -98 -29 -88 20 6 31 36 28 40 -4 4 -24 5
-26 13 -9 10 24 -5 50 -33 54 -26 4 -56 -39 -47 -68 6 -18 2 -20 -44 -20 l-51
0 0 35 c0 28 -5 38 -25 47 -40 18 -69 -15 -45 -52 8 -12 11 -13 22 -2 11 11
10 13 -2 10 -8 -2 -15 4 -15 12 0 21 39 19 43 -3 5 -24 -16 -47 -42 -47 -28 0
-66 39 -66 67 0 31 46 81 83 92 28 8 29 9 7 9 -14 1 -35 -3 -46 -8z m315 -215
c47 -9 113 -25 146 -37 69 -25 220 -102 242 -123 8 -8 18 -15 22 -15 7 0 52
-39 135 -119 208 -200 315 -543 260 -840 -46 -254 -149 -422 -377 -617 -142
-121 -389 -204 -607 -204 -208 0 -438 74 -591 190 -59 45 -163 144 -199 190
-98 124 -177 307 -201 465 -22 135 4 370 52 485 111 264 291 449 550 564 160
70 382 94 568 61z m-1276 -1140 c69 -29 105 -116 71 -173 -21 -37 -53 -55 -94
-54 -38 1 -47 7 -65 42 -27 52 17 106 65 80 14 -7 20 -19 18 -33 -4 -27 -38
-37 -37 -10 0 10 3 13 6 6 8 -20 23 -15 23 7 0 15 -7 20 -25 20 -48 0 -44 -61
4 -68 30 -5 51 15 51 46 0 61 -67 82 -114 36 -76 -77 33 -192 134 -141 13 7
35 27 47 46 l23 33 9 -24 c18 -48 56 -124 84 -171 28 -46 29 -50 18 -105 -27
-138 -114 -249 -246 -317 -76 -40 -78 -40 -189 -40 -128 0 -175 17 -249 89
-126 122 -134 309 -20 420 21 20 45 36 54 36 10 0 19 6 22 13 2 8 28 12 83 12
67 0 85 -4 117 -25 40 -27 87 -107 87 -147 0 -105 -128 -182 -203 -123 -30 24
-44 78 -28 109 33 61 126 43 106 -20 -7 -23 -45 -26 -45 -4 0 8 7 15 15 15 18
0 20 27 3 33 -39 13 -73 -31 -55 -71 21 -46 97 -41 117 9 26 62 -34 129 -103
115 -69 -14 -105 -99 -72 -169 21 -46 54 -67 114 -74 77 -9 159 48 183 129 25
85 -38 206 -128 244 -30 13 -34 19 -34 51 0 20 9 55 20 78 46 96 143 138 233
100z m2319 1 c70 -30 118 -100 118 -175 0 -35 -4 -42 -32 -56 -50 -24 -75 -48
-100 -96 -33 -63 -32 -151 2 -200 58 -87 176 -103 246 -33 30 31 34 41 34 87
0 46 -4 57 -30 82 -43 41 -102 41 -136 2 -46 -53 -22 -127 41 -127 34 0 65 27
65 57 0 21 -38 53 -55 47 -19 -8 -20 -34 0 -34 8 0 15 -7 15 -15 0 -9 -9 -15
-25 -15 -21 0 -25 5 -25 30 0 53 72 64 105 17 23 -33 18 -63 -16 -102 -26 -29
-38 -35 -71 -35 -45 0 -84 18 -113 52 -16 18 -20 37 -20 89 0 57 4 71 29 103
89 117 275 94 365 -43 34 -53 36 -60 35 -136 -1 -57 -6 -92 -20 -120 -25 -54
-75 -122 -94 -129 -8 -3 -30 -17 -49 -31 -50 -37 -104 -48 -206 -43 -66 4
-103 11 -140 29 -64 29 -142 87 -178 130 -41 49 -84 146 -92 205 -6 48 -4 57
34 123 22 40 48 94 58 120 l17 49 36 -40 c29 -33 43 -41 80 -45 39 -4 51 -1
77 21 37 31 50 75 32 108 -26 49 -70 61 -114 32 -46 -30 -22 -98 32 -92 24 3
28 7 28 33 0 26 -4 30 -28 30 -24 -1 -26 1 -12 15 14 13 18 13 43 0 61 -35 26
-120 -49 -120 -88 0 -130 102 -73 178 45 58 117 77 186 48z m-91 -159 c-7 -7
-14 -8 -21 -1 -6 6 -2 10 12 11 16 2 18 -1 9 -10z m-1786 -477 c130 -96 236
-148 400 -194 46 -13 32 -14 -209 -15 l-259 -1 26 24 c46 42 48 128 5 186 -30
41 -71 60 -130 60 -26 0 -48 2 -48 4 0 1 4 16 9 32 5 16 12 42 16 58 l6 28 82
-83 c45 -46 91 -91 102 -99z m1499 148 c3 -18 9 -45 12 -60 6 -27 5 -28 -40
-28 -58 0 -97 -19 -133 -67 -38 -50 -38 -116 1 -167 l27 -36 -250 0 c-138 0
-251 2 -251 4 0 3 25 10 56 16 52 11 222 76 234 89 3 3 15 12 28 19 79 44 74
40 147 104 70 61 145 139 145 150 0 5 4 8 9 8 4 0 11 -15 15 -32z m-1596 -122
c44 -23 72 -69 72 -120 0 -38 -5 -48 -35 -75 -42 -37 -81 -40 -119 -10 -28 22
-34 56 -16 90 15 26 66 26 80 -1 7 -14 7 -20 0 -20 -5 0 -10 5 -10 11 0 20
-45 5 -48 -17 -4 -27 21 -47 48 -39 30 10 41 44 24 78 -26 50 -105 32 -120
-29 -8 -32 3 -75 24 -91 14 -10 -12 -12 -148 -12 l-165 -1 63 32 c72 36 157
112 196 176 25 40 28 42 77 42 27 0 62 -6 77 -14z m1646 -18 c45 -77 128 -152
215 -192 l46 -21 -154 -3 c-85 -1 -156 -1 -158 2 -3 2 5 14 16 25 45 45 10
131 -54 131 -39 0 -65 -22 -65 -53 0 -27 10 -42 33 -50 28 -10 47 3 47 34 0
24 -4 29 -25 29 -17 0 -25 -6 -26 -17 0 -12 -2 -13 -6 -5 -7 19 16 42 43 42
30 0 58 -41 51 -73 -7 -25 -55 -57 -87 -57 -36 0 -78 38 -91 80 -10 34 -9 46
5 77 25 56 69 83 136 83 52 0 57 -2 74 -32z m-2584 -40 c11 -12 20 -28 20 -37
0 -20 -30 -51 -50 -51 -18 0 -40 19 -40 34 0 5 6 1 14 -9 18 -25 46 -13 46 20
0 22 -4 25 -35 25 -33 0 -35 -2 -35 -35 0 -28 5 -38 25 -47 34 -15 73 3 88 42
l11 30 33 -38 c18 -20 33 -42 33 -49 0 -7 -15 -23 -33 -37 -27 -21 -45 -26
-88 -26 -75 0 -119 35 -125 100 -5 47 5 67 41 88 32 18 72 14 95 -10z m3440
-48 c0 -5 -2 -10 -4 -10 -3 0 -8 5 -11 10 -3 6 -1 10 4 10 6 0 11 -4 11 -10z
m-940 -40 c0 -5 -4 -10 -10 -10 -5 0 -10 5 -10 10 0 6 5 10 10 10 6 0 10 -4
10 -10z m782 -60 l30 -30 -77 0 c-48 0 -74 4 -70 10 3 6 12 10 19 10 8 0 24 9
37 20 13 10 25 19 27 20 2 0 17 -13 34 -30z m-3101 -5 l44 -25 -69 0 -69 0 24
24 c13 13 25 24 25 25 1 1 22 -10 45 -24z"/>
<path d="M2250 4250 c-36 -4 -84 -13 -107 -19 -24 -6 -61 -16 -84 -21 -155
-39 -372 -191 -479 -335 -133 -179 -194 -365 -193 -590 1 -302 141 -576 387
-762 148 -111 395 -193 580 -193 119 0 299 38 390 82 33 15 65 28 73 28 7 0
13 5 13 10 0 6 6 10 13 10 7 0 29 11 48 25 19 14 45 33 59 42 13 10 31 25 40
33 8 8 30 27 48 42 54 45 178 213 204 275 71 175 88 256 88 417 0 168 -20 259
-92 416 -63 138 -204 300 -333 382 -80 50 -175 98 -196 98 -8 0 -19 4 -24 9
-19 17 -181 49 -275 54 -52 3 -124 2 -160 -3z m271 -25 c116 -20 193 -46 285
-95 118 -63 225 -151 307 -252 40 -50 127 -192 127 -208 0 -6 4 -18 9 -28 76
-145 88 -436 24 -632 -76 -237 -254 -442 -479 -554 -123 -60 -192 -82 -313
-96 -248 -30 -467 23 -668 162 -188 130 -321 318 -384 543 -32 116 -33 345 -1
459 25 85 86 229 112 261 9 11 29 39 44 62 16 23 54 68 86 100 86 88 147 132
276 201 42 23 93 42 111 42 10 0 23 4 29 8 5 5 43 15 84 22 41 6 80 14 85 15
29 9 193 3 266 -10z"/>
<path d="M2222 4186 c-13 -30 -28 -33 -54 -9 -16 14 -18 14 -18 1 0 -38 -54
-46 -63 -10 -4 18 -7 13 -22 -33 -6 -20 -35 -19 -51 3 -12 15 -13 15 -14 -10
0 -30 -34 -48 -53 -29 -17 17 -26 13 -20 -7 7 -27 -24 -49 -48 -34 -26 17 -31
15 -24 -7 8 -27 -21 -48 -46 -33 -17 11 -19 9 -19 -18 0 -34 -22 -49 -45 -30
-8 7 -15 9 -16 4 -1 -5 -2 -20 -2 -34 -2 -20 -7 -25 -28 -25 -23 1 -26 -3 -25
-30 1 -27 -2 -30 -31 -33 -29 -3 -31 -5 -21 -22 15 -24 -6 -53 -33 -45 -11 4
-19 2 -19 -4 0 -6 5 -11 10 -11 6 0 10 -9 10 -20 0 -15 -9 -22 -30 -26 -30 -7
-38 -18 -20 -29 19 -12 10 -35 -15 -41 -27 -7 -29 -12 -16 -33 12 -19 -4 -51
-26 -51 -13 0 -14 -3 -5 -12 20 -20 14 -48 -14 -58 l-26 -10 23 -19 c20 -16
21 -21 10 -35 -7 -9 -20 -16 -27 -16 -19 0 -18 -16 1 -24 21 -7 19 -43 -2 -56
-17 -10 -17 -10 0 -20 21 -13 22 -46 2 -54 -8 -3 -15 -10 -15 -16 0 -5 7 -10
15 -10 9 0 15 -9 15 -25 0 -14 -7 -28 -15 -31 -19 -8 -20 -24 -1 -24 7 0 19
-7 26 -15 10 -13 10 -19 -4 -33 -21 -24 -20 -30 6 -34 27 -4 33 -21 13 -41
-19 -19 -19 -27 -1 -27 22 0 41 -29 28 -42 -16 -16 -15 -28 2 -28 25 0 41 -29
28 -51 -16 -25 -15 -28 6 -22 27 7 49 -24 34 -48 -15 -23 -15 -32 -2 -24 17
10 50 -5 50 -24 0 -9 -6 -23 -12 -30 -11 -11 -9 -13 8 -9 33 8 57 -10 50 -38
-6 -21 -3 -24 24 -24 29 0 34 -7 31 -42 -2 -12 4 -15 19 -11 29 8 52 -14 39
-38 -7 -14 -6 -19 4 -19 7 0 18 5 24 11 15 15 43 -16 36 -41 -6 -22 7 -26 24
-9 17 17 56 1 50 -22 -3 -10 -1 -22 4 -25 5 -3 9 0 9 5 0 6 14 11 30 11 26 0
30 -4 30 -27 0 -21 3 -24 12 -15 20 20 58 15 58 -7 0 -25 16 -36 24 -15 9 24
49 13 56 -15 5 -21 7 -22 19 -7 19 22 52 20 58 -4 6 -24 19 -26 27 -5 8 22 47
19 53 -5 6 -23 23 -27 23 -6 0 25 33 29 52 7 20 -26 24 -26 31 -1 6 24 45 27
53 5 8 -21 21 -19 27 5 6 24 45 27 53 5 9 -22 21 -18 28 10 7 28 43 35 52 10
9 -24 24 -17 24 10 0 19 5 25 23 25 13 0 28 -5 35 -12 9 -9 12 -7 12 10 0 27
26 39 51 24 25 -16 32 -15 25 3 -13 34 31 65 49 35 10 -16 24 -2 18 18 -6 25
23 50 39 34 20 -20 28 -14 28 19 0 29 2 31 30 27 26 -4 29 -2 32 26 3 27 6 31
31 28 25 -3 28 0 22 18 -8 26 12 52 35 45 15 -5 18 0 17 27 -2 30 1 33 26 33
31 -1 31 -1 16 26 -13 24 4 49 32 49 16 0 17 3 8 19 -18 27 -4 51 28 51 26 1
27 2 10 15 -24 18 -18 49 11 53 26 4 27 8 7 28 -18 19 -2 59 21 50 8 -3 14 1
14 8 0 8 -7 16 -15 20 -24 9 -17 36 12 47 l26 10 -21 19 c-22 21 -20 50 4 50
8 0 14 7 14 15 0 8 -7 15 -15 15 -21 0 -19 37 3 49 16 9 15 11 -5 31 -28 25
-28 25 -1 49 l21 20 -26 10 c-29 11 -36 36 -12 45 19 7 20 26 1 26 -7 0 -19 7
-26 15 -10 13 -10 19 4 33 21 24 20 32 -4 32 -24 0 -37 27 -21 43 17 17 14 24
-14 31 -26 7 -33 34 -14 53 7 7 1 12 -20 16 -33 7 -43 38 -18 54 8 5 2 9 -18
13 -24 4 -30 10 -30 30 0 19 -6 26 -25 30 -21 5 -25 11 -24 37 2 30 0 32 -27
26 -30 -6 -33 -1 -29 45 1 21 0 22 -18 11 -28 -18 -56 5 -47 38 5 21 3 23 -11
15 -27 -15 -54 -3 -54 24 0 26 -10 30 -28 12 -15 -15 -42 7 -42 34 0 16 -3 17
-21 8 -29 -16 -49 -5 -49 26 0 26 -1 26 -18 11 -30 -27 -52 -22 -52 13 0 36
-3 37 -31 9 -16 -16 -23 -18 -35 -8 -8 6 -14 18 -14 25 0 18 -9 18 -31 -2 -22
-20 -49 -12 -49 16 0 25 -5 25 -30 0 -21 -21 -50 -17 -50 6 0 19 -16 18 -24
-1 -3 -8 -17 -15 -31 -15 -16 0 -25 6 -25 15 0 8 -4 15 -9 15 -5 0 -11 -7 -15
-15 -7 -20 -46 -19 -60 1 -11 14 -13 13 -24 -10z m-189 -372 c23 -4 37 -12 37
-22 0 -11 -7 -13 -32 -7 -18 3 -50 9 -70 12 l-38 6 0 -87 0 -86 55 0 c42 0 55
-3 55 -15 0 -12 -13 -15 -55 -15 l-55 0 0 -54 c0 -79 5 -86 57 -86 24 0 53 5
65 11 27 14 36 2 12 -16 -47 -35 -175 -35 -201 1 -7 10 -13 44 -13 81 0 56 -2
63 -20 63 -11 0 -20 7 -20 15 0 8 9 15 20 15 18 0 20 7 20 80 0 89 -4 93 -66
64 -27 -13 -34 -22 -34 -45 0 -27 2 -28 31 -22 28 5 30 4 27 -17 -5 -33 -31
-47 -62 -32 -48 22 -28 100 33 132 47 24 177 36 254 24z m401 -4 l26 -10 0
-170 c0 -194 -2 -190 82 -173 51 10 68 4 43 -17 -17 -14 -172 -20 -192 -7 -10
6 -13 54 -13 184 l0 176 -36 -6 c-43 -7 -74 -32 -74 -60 0 -16 5 -19 30 -14
33 7 44 -4 35 -33 -9 -28 -70 -28 -85 1 -26 48 14 105 90 127 46 13 64 14 94
2z m560 -19 c13 -12 33 -55 46 -99 36 -124 40 -131 66 -134 26 -3 30 -23 5
-23 -36 0 -15 -81 22 -88 16 -2 11 -6 -21 -16 -56 -16 -83 0 -101 58 l-12 41
-54 0 c-37 0 -55 -4 -55 -12 0 -7 -15 -34 -32 -60 -39 -56 -76 -69 -130 -44
-18 8 -46 16 -63 18 -24 2 -31 8 -33 29 -4 36 21 55 53 41 14 -7 25 -16 25
-21 0 -6 11 -21 24 -35 37 -41 71 -32 109 26 24 39 22 58 -8 58 -16 0 -25 6
-25 15 0 10 10 15 34 15 32 0 34 3 46 48 6 26 16 58 21 72 5 14 10 43 12 65 2
39 1 40 -31 43 -44 4 -82 -21 -82 -54 0 -21 4 -25 23 -23 34 5 49 -8 37 -32
-12 -22 -59 -26 -78 -7 -18 18 -15 74 5 94 54 54 153 66 197 25z m-798 -306
c21 -31 5 -55 -36 -55 -39 0 -53 36 -24 64 22 23 41 20 60 -9z m414 -330 c31
-16 37 -29 19 -40 -6 -4 -17 2 -25 14 -33 46 -74 7 -74 -70 0 -28 2 -29 48
-29 48 1 82 19 95 53 11 29 27 19 27 -18 0 -32 2 -35 30 -35 22 0 28 4 24 15
-7 17 11 21 21 5 11 -18 -15 -40 -46 -40 l-29 0 0 -110 c0 -112 7 -129 38 -98
9 9 12 9 12 1 0 -18 -42 -43 -72 -43 -50 0 -58 20 -58 141 l0 109 -45 0 -45 0
0 -131 c0 -149 -11 -186 -65 -219 -34 -21 -108 -27 -134 -11 -8 5 -11 16 -7
26 6 17 8 16 29 -4 31 -28 51 -27 76 5 19 24 21 40 21 180 0 147 -1 154 -20
154 -11 0 -20 5 -20 10 0 6 8 10 18 10 13 0 21 13 30 46 14 53 26 67 67 82 41
15 52 14 85 -3z m-430 -23 c28 -14 35 -23 35 -47 0 -25 -4 -31 -26 -33 -23 -3
-27 1 -33 31 -8 41 -28 52 -64 35 -53 -26 -67 -60 -70 -172 -4 -99 -3 -103 23
-135 23 -27 33 -32 64 -29 l36 3 3 68 3 67 -31 0 c-16 0 -30 5 -30 10 0 6 33
10 80 10 47 0 80 -4 80 -10 0 -5 -8 -10 -17 -10 -16 0 -18 -10 -15 -92 3 -87
1 -96 -24 -135 -29 -44 -51 -58 -108 -69 -41 -7 -96 11 -96 32 0 22 16 24 33
3 9 -10 28 -19 42 -19 28 0 74 39 76 65 4 52 7 50 -58 55 -107 9 -155 64 -155
177 0 79 9 106 49 149 54 60 138 79 203 46z m189 -36 c2 -11 -5 -25 -14 -32
-33 -24 -86 22 -58 50 15 15 68 1 72 -18z m1 -86 c6 -11 10 -66 9 -125 -1
-112 -9 -129 -51 -123 -22 3 -23 6 -26 121 -2 103 -5 117 -20 117 -15 1 -15 2
2 15 29 22 73 19 86 -5z m541 10 c26 -15 26 -60 -1 -60 -21 0 -27 15 -10 25
16 10 1 25 -24 25 -46 0 -38 -35 20 -96 61 -63 66 -88 29 -128 -31 -34 -97
-36 -135 -5 -20 17 -21 20 -5 14 45 -16 56 -17 70 -5 23 19 18 42 -14 78 -46
50 -65 86 -58 114 11 41 82 62 128 38z"/>
<path d="M2936 3694 c-3 -9 -6 -25 -6 -37 -1 -12 -7 -39 -14 -59 l-14 -38 44
0 c24 0 44 3 44 6 0 10 -42 144 -45 144 -2 0 -6 -7 -9 -16z"/>
<path d="M1115 3080 c-4 -6 -11 -7 -17 -4 -7 4 -8 2 -4 -4 4 -7 2 -12 -5 -12
-7 0 -4 -6 7 -14 10 -8 21 -10 22 -5 2 5 9 6 15 2 7 -4 6 0 -1 10 -8 9 -11 21
-7 27 3 5 4 10 1 10 -3 0 -8 -5 -11 -10z"/>
<path d="M1265 3080 l-30 -8 33 -1 c17 0 32 4 32 9 0 6 -1 9 -2 9 -2 -1 -16
-5 -33 -9z"/>
<path d="M1285 3050 c-3 -5 -1 -10 4 -10 6 0 11 5 11 10 0 6 -2 10 -4 10 -3 0
-8 -4 -11 -10z"/>
<path d="M1311 3014 c0 -11 3 -14 6 -6 3 7 2 16 -1 19 -3 4 -6 -2 -5 -13z"/>
<path d="M1296 2943 c-6 -14 -5 -15 5 -6 7 7 10 15 7 18 -3 3 -9 -2 -12 -12z"/>
<path d="M1165 2850 c3 -5 11 -10 16 -10 6 0 7 5 4 10 -3 6 -11 10 -16 10 -6
0 -7 -4 -4 -10z"/>
<path d="M1205 2850 c-3 -5 -3 -10 2 -11 4 0 -1 -4 -11 -8 -19 -7 -19 -8 2
-13 12 -4 20 -2 17 2 -3 5 1 11 7 13 10 4 10 6 0 6 -7 1 -10 6 -7 11 3 6 4 10
1 10 -3 0 -8 -4 -11 -10z"/>
<path d="M1260 2840 c8 -5 22 -9 30 -9 10 0 8 3 -5 9 -27 12 -43 12 -25 0z"/>
<path d="M1240 2826 c0 -2 7 -7 16 -10 8 -3 12 -2 9 4 -6 10 -25 14 -25 6z"/>
<path d="M3538 3093 c6 -2 18 -2 25 0 6 3 1 5 -13 5 -14 0 -19 -2 -12 -5z"/>
<path d="M3600 3055 c-6 -8 -10 -20 -7 -27 3 -8 6 -6 6 5 1 10 5 16 9 13 5 -3
9 1 9 9 0 19 -2 19 -17 0z"/>
<path d="M3446 2828 c3 -4 11 -5 19 -1 21 7 19 12 -4 10 -11 0 -18 -5 -15 -9z"/>
<path d="M2541 4481 c-8 -5 -9 -11 -3 -15 5 -3 12 1 16 9 6 17 6 18 -13 6z"/>
<path d="M2003 4463 c9 -2 23 -2 30 0 6 3 -1 5 -18 5 -16 0 -22 -2 -12 -5z"/>
<path d="M2268 4463 c-10 -2 -18 -9 -18 -14 0 -6 -4 -8 -9 -5 -5 3 -14 -1 -21
-9 -11 -13 -10 -14 6 -8 17 6 18 5 4 -13 -14 -18 -14 -18 6 -1 12 10 37 17 62
17 23 0 42 5 42 10 0 6 -7 10 -15 10 -8 0 -15 5 -15 10 0 10 -12 11 -42 3z
m25 -20 c-7 -2 -19 -2 -25 0 -7 3 -2 5 12 5 14 0 19 -2 13 -5z"/>
<path d="M2396 4462 c-3 -3 -6 -14 -6 -24 0 -10 -4 -18 -10 -18 -5 0 -10 5
-10 12 0 9 -3 9 -12 0 -7 -7 -20 -12 -30 -12 -20 0 -24 -15 -6 -26 7 -5 8 -3
3 6 -6 9 -4 11 4 5 7 -4 10 -17 7 -29 -4 -18 -1 -22 19 -24 24 -2 29 7 28 46
-1 7 5 11 12 8 7 -2 16 2 19 10 7 18 33 18 67 0 18 -9 26 -10 26 -2 0 7 -7 13
-16 13 -25 2 -74 23 -68 29 3 3 14 1 25 -5 27 -14 54 -14 30 0 -22 12 -74 20
-82 11z m-29 -74 c-3 -7 -5 -2 -5 12 0 14 2 19 5 13 2 -7 2 -19 0 -25z"/>
<path d="M1290 4452 c0 -18 -81 -33 -138 -26 l-58 6 10 -91 c8 -79 11 -91 27
-91 15 0 19 -8 19 -39 0 -33 4 -40 23 -44 19 -3 18 -5 -10 -12 -44 -10 -45
-40 -2 -49 17 -3 28 -10 25 -15 -3 -5 1 -14 9 -21 18 -15 20 -60 3 -60 -6 0
-1 -9 12 -20 13 -11 29 -20 36 -20 7 0 19 -3 27 -6 9 -3 16 3 20 15 7 27 24
27 32 1 8 -24 -3 -43 -20 -36 -12 4 -25 -13 -25 -33 0 -4 15 -5 32 -3 28 4 30
6 13 13 -17 6 -17 8 -2 8 11 1 17 9 17 24 0 13 9 33 20 45 17 18 18 22 5 22
-9 0 -15 9 -15 25 0 16 6 25 15 25 9 0 15 -9 15 -22 l0 -22 16 23 c14 19 23
22 64 19 l48 -3 -1 47 c0 25 5 54 13 62 7 9 10 20 6 24 -10 10 -36 -27 -36
-52 -1 -20 -2 -20 -14 -3 -7 9 -24 17 -38 17 -22 0 -24 -4 -20 -30 2 -16 9
-30 16 -30 6 0 -2 -7 -18 -15 -27 -14 -61 -10 -37 5 7 3 14 24 17 46 3 26 2
33 -4 20 -6 -13 -11 -16 -16 -8 -11 18 40 45 74 40 21 -3 30 0 30 9 0 8 4 11
10 8 6 -3 7 1 4 9 -3 9 -1 16 5 16 6 0 11 -3 11 -8 0 -4 18 -7 39 -7 30 0 37
3 29 13 -8 8 -6 12 4 12 8 0 20 -6 27 -12 10 -11 12 -10 9 1 -2 7 3 16 11 19
9 3 11 0 6 -8 -6 -9 1 -11 26 -5 25 4 30 3 19 -4 -13 -10 -13 -11 0 -11 13 0
13 -1 0 -10 -9 -6 -10 -10 -3 -10 18 0 24 15 27 77 3 46 1 53 -9 40 -15 -20
-70 -24 -59 -4 5 7 1 6 -10 -3 -17 -13 -18 -11 -14 45 l3 60 -42 -4 c-38 -3
-43 -6 -43 -27 0 -29 -20 -32 -27 -4 -14 51 -48 -6 -48 -80 0 -46 3 -55 17
-54 16 2 16 0 0 -21 -9 -13 -21 -21 -26 -18 -4 3 -2 10 5 14 11 8 11 12 -3 23
-10 7 -18 21 -18 30 0 9 -7 16 -15 16 -8 0 -15 9 -15 20 0 17 -7 20 -40 20
-33 0 -40 3 -40 20 0 11 7 20 15 20 8 0 15 9 15 20 0 16 -7 20 -30 20 -34 0
-40 15 -9 23 12 3 18 10 14 16 -7 13 -35 15 -35 3z m-153 -104 c-2 -13 -4 -3
-4 22 0 25 2 35 4 23 2 -13 2 -33 0 -45z m423 -78 c0 -5 11 -10 25 -10 14 0
25 -4 25 -10 0 -5 -6 -8 -12 -6 -7 3 -25 7 -40 10 -29 7 -39 26 -13 26 8 0 15
-4 15 -10z m-193 -16 c-3 -3 -12 -4 -19 -1 -8 3 -5 6 6 6 11 1 17 -2 13 -5z
m-132 -74 c3 -5 -1 -10 -9 -10 -9 0 -16 5 -16 10 0 6 4 10 9 10 6 0 13 -4 16
-10z m145 -67 c0 -8 -3 -12 -7 -10 -5 2 -17 7 -28 11 -15 6 -17 9 -6 16 18 11
41 2 41 -17z m-130 -63 c0 -29 -4 -40 -15 -40 -11 0 -15 11 -15 40 0 29 4 40
15 40 11 0 15 -11 15 -40z m65 0 c0 -7 -6 -15 -12 -17 -8 -3 -13 4 -13 17 0
13 5 20 13 18 6 -3 12 -11 12 -18z"/>
<path d="M1837 4438 c-4 -12 -1 -28 5 -35 8 -10 6 -13 -8 -12 -36 4 -64 -1
-64 -10 0 -5 15 -9 34 -9 18 0 43 -5 54 -11 31 -16 39 -14 47 16 3 15 18 38
32 51 14 13 23 25 20 28 -10 10 -47 -21 -60 -48 -6 -16 -15 -28 -19 -28 -4 0
-3 11 4 25 8 19 8 28 -2 40 -18 22 -37 19 -43 -7z"/>
<path d="M2038 4443 c7 -3 16 -2 19 1 4 3 -2 6 -13 5 -11 0 -14 -3 -6 -6z"/>
<path d="M3698 4443 c7 -3 16 -2 19 1 4 3 -2 6 -13 5 -11 0 -14 -3 -6 -6z"/>
<path d="M1370 4400 c0 -35 25 -41 33 -8 7 26 1 38 -19 38 -9 0 -14 -11 -14
-30z"/>
<path d="M2111 4393 c7 -10 15 -20 16 -22 2 -2 3 3 3 11 0 9 -7 19 -16 22 -15
6 -15 4 -3 -11z"/>
<path d="M3710 4400 c0 -5 9 -10 19 -10 11 0 23 5 26 10 4 6 -5 10 -19 10 -14
0 -26 -4 -26 -10z"/>
<path d="M2711 4379 c5 -10 12 -19 15 -19 3 0 2 5 -2 11 -4 7 2 9 17 7 12 -1
25 -10 27 -18 5 -13 3 -13 -11 -1 -13 10 -17 10 -17 1 0 -6 9 -14 20 -17 11
-3 20 -10 20 -15 0 -5 -4 -6 -10 -3 -13 8 -13 1 4 -39 14 -34 46 -65 33 -33
-3 9 0 18 9 21 8 3 13 11 12 17 -2 6 3 14 11 17 8 2 11 1 8 -4 -3 -5 6 -9 19
-9 15 0 22 5 20 12 -3 6 0 13 6 15 6 2 12 15 14 29 1 13 0 18 -2 11 -3 -6 -10
-10 -15 -7 -5 4 -6 -1 -3 -10 5 -11 2 -14 -12 -8 -12 4 -15 3 -10 -5 5 -8 0
-12 -13 -12 -11 0 -22 4 -26 10 -3 5 -12 7 -20 3 -8 -3 -15 0 -15 6 0 6 6 11
13 11 6 0 4 5 -6 11 -9 6 -14 15 -11 21 4 6 3 8 -3 5 -5 -3 -26 -2 -46 3 -34
7 -36 6 -26 -11z"/>
<path d="M1933 4370 c1 -8 -4 -14 -12 -12 -8 2 -11 -3 -8 -12 7 -19 -17 -28
-33 -13 -7 7 -4 -2 8 -19 12 -17 19 -34 15 -38 -3 -3 -1 -6 5 -6 7 0 12 7 12
15 0 7 8 19 18 24 9 6 12 11 7 11 -6 0 -16 -5 -22 -11 -7 -7 -13 -7 -17 -1 -3
6 2 13 11 17 10 3 28 19 41 35 l23 30 -25 -2 c-17 -2 -25 -8 -23 -18z"/>
<path d="M1972 4364 c-12 -8 -22 -19 -22 -24 0 -6 9 -2 20 8 11 9 30 20 43 24
20 6 20 6 2 7 -11 1 -31 -6 -43 -15z"/>
<path d="M2660 4358 c-9 -20 -9 -21 2 -7 7 9 20 18 28 22 12 4 12 6 -2 6 -10
1 -22 -9 -28 -21z"/>
<path d="M3690 4366 c0 -9 5 -16 10 -16 6 0 10 4 10 9 0 6 -4 13 -10 16 -5 3
-10 -1 -10 -9z"/>
<path d="M1830 4335 c-7 -8 -20 -15 -29 -15 -14 0 -14 -2 -1 -10 21 -14 30
-12 30 4 0 8 5 18 11 22 8 4 9 0 4 -15 -5 -16 -3 -20 9 -15 12 5 13 10 5 25
-12 23 -13 23 -29 4z"/>
<path d="M2130 4336 c0 -9 5 -16 10 -16 6 0 10 4 10 9 0 6 -4 13 -10 16 -5 3
-10 -1 -10 -9z"/>
<path d="M3696 4315 c4 -8 8 -15 10 -15 2 0 4 7 4 15 0 8 -4 15 -10 15 -5 0
-7 -7 -4 -15z"/>
<path d="M2900 4308 c1 -7 11 -25 23 -40 20 -25 23 -26 23 -8 0 11 -6 20 -13
20 -6 0 -15 5 -19 12 -5 8 -2 9 11 4 15 -5 16 -4 5 9 -15 18 -30 20 -30 3z"/>
<path d="M1860 4296 c0 -2 7 -7 16 -10 8 -3 12 -2 9 4 -6 10 -25 14 -25 6z"/>
<path d="M1775 4230 c3 -5 8 -10 11 -10 2 0 4 5 4 10 0 6 -5 10 -11 10 -5 0
-7 -4 -4 -10z"/>
<path d="M1548 4203 c7 -3 16 -2 19 1 4 3 -2 6 -13 5 -11 0 -14 -3 -6 -6z"/>
<path d="M2986 4183 c-6 -14 -5 -15 5 -6 7 7 10 15 7 18 -3 3 -9 -2 -12 -12z"/>
<path d="M3195 4173 c8 -15 15 -45 15 -65 l0 -38 49 0 c28 0 53 -4 56 -10 3
-5 11 -10 17 -10 6 0 3 9 -7 20 -10 11 -25 20 -34 20 -12 0 -12 3 -3 12 7 7
12 22 12 34 0 17 -7 23 -30 26 -25 4 -30 1 -30 -16 0 -16 -4 -13 -18 13 -9 19
-23 37 -29 39 -9 2 -8 -4 2 -25z"/>
<path d="M3710 4158 c0 -7 4 -19 9 -26 7 -12 12 -12 30 -1 31 20 26 39 -9 39
-17 0 -30 -5 -30 -12z"/>
<path d="M1647 4149 c7 -7 15 -10 18 -7 3 3 -2 9 -12 12 -14 6 -15 5 -6 -5z"/>
<path d="M3065 4143 l-20 -16 20 7 c23 9 24 9 48 7 10 0 16 -4 14 -8 -3 -5 1
-13 8 -20 11 -10 14 -10 18 0 2 7 8 9 12 5 4 -4 3 -13 -3 -20 -16 -20 -26 -88
-13 -88 6 0 14 6 17 14 4 12 12 12 37 4 18 -6 35 -16 39 -22 4 -6 8 -7 8 -2 0
4 8 -2 18 -14 17 -21 18 -21 18 -2 0 11 -4 18 -8 16 -4 -3 -8 4 -8 15 0 15 -7
21 -22 22 -22 0 -22 1 -3 9 18 9 18 9 -5 8 -55 -3 -70 2 -70 21 0 11 5 23 10
26 6 4 4 12 -6 22 -13 14 -17 14 -25 2 -7 -12 -9 -11 -9 2 0 31 -44 37 -75 12z"/>
<path d="M1545 4136 c-10 -7 -15 -18 -11 -24 7 -11 -11 -51 -29 -64 -5 -4 -6
-11 -1 -15 5 -4 11 -2 13 5 3 6 9 9 15 6 6 -4 8 1 4 14 -4 11 -2 23 4 27 13 8
13 -30 0 -55 -9 -16 -8 -18 6 -13 13 5 15 3 9 -8 -4 -8 -5 -11 0 -7 4 4 8 27
7 50 0 64 -1 70 -12 63 -5 -3 -10 -1 -10 4 0 14 13 14 27 0 9 -9 11 -8 9 4 -3
25 -11 28 -31 13z"/>
<path d="M1570 4055 c0 -5 5 -17 10 -25 5 -8 10 -10 10 -5 0 6 -5 17 -10 25
-5 8 -10 11 -10 5z"/>
<path d="M1443 4018 c-1 -11 1 -16 5 -12 4 5 11 12 15 15 5 3 2 9 -5 12 -9 3
-14 -3 -15 -15z"/>
<path d="M3337 4033 c-3 -5 0 -17 4 -28 9 -19 9 -19 5 2 -2 12 1 24 8 27 8 3
8 5 -1 5 -6 1 -14 -2 -16 -6z"/>
<path d="M1456 3993 c-6 -14 -5 -15 5 -6 7 7 10 15 7 18 -3 3 -9 -2 -12 -12z"/>
<path d="M3720 3970 c0 -22 5 -40 10 -40 6 0 10 18 10 40 0 22 -4 40 -10 40
-5 0 -10 -18 -10 -40z"/>
<path d="M1375 3900 c4 -12 -3 -14 -40 -12 -34 3 -45 0 -45 -10 0 -10 10 -13
35 -10 19 2 41 -1 48 -6 10 -9 13 -6 12 13 0 13 -4 27 -8 31 -4 5 -6 2 -2 -6z"/>
<path d="M1248 3873 c-3 -15 -8 -37 -12 -48 -6 -15 -4 -15 6 3 8 12 17 19 21
16 4 -4 7 2 7 14 0 12 0 25 1 29 0 4 -4 9 -9 11 -5 1 -12 -10 -14 -25z"/>
<path d="M3480 3763 c0 -21 -7 -49 -16 -61 -17 -24 -11 -42 13 -42 22 0 73
-39 73 -56 0 -8 5 -12 10 -9 16 10 12 19 -22 55 -21 21 -26 31 -15 27 22 -8
51 17 43 38 -7 18 -52 20 -59 3 -3 -7 -6 6 -6 29 -1 53 -21 69 -21 16z"/>
<path d="M1219 3775 c-1 -11 -2 -31 -1 -45 1 -14 -1 -19 -4 -12 -6 13 -32 16
-58 6 -14 -5 -14 -8 1 -30 11 -18 21 -23 36 -18 19 6 18 4 -4 -17 -14 -13 -31
-37 -37 -52 -11 -25 -8 -24 26 13 23 24 48 40 62 40 19 0 21 4 15 23 -3 12
-12 42 -20 67 -8 28 -14 37 -16 25z"/>
<path d="M1294 3763 c2 -13 0 -26 -5 -29 -5 -3 -9 1 -9 8 0 9 -3 9 -10 -2 -13
-20 -12 -39 1 -20 8 12 9 12 7 -5 -1 -11 1 -26 5 -32 13 -20 34 -15 32 7 -2
25 -15 39 -15 17 0 -9 -5 -17 -11 -17 -6 0 -1 15 10 34 22 36 27 51 12 42 -5
-4 -12 0 -15 6 -4 7 -4 3 -2 -9z"/>
<path d="M3411 3763 c-1 -6 -4 -20 -7 -30 -5 -17 -5 -17 6 0 6 10 9 23 6 30
-3 9 -5 9 -5 0z"/>
<path d="M3587 3673 c3 -7 6 -13 8 -13 2 0 5 6 8 13 3 8 -1 14 -8 14 -7 0 -11
-6 -8 -14z"/>
<path d="M1284 3651 c7 -10 3 -12 -14 -6 -19 6 -21 5 -11 -13 6 -11 9 -21 8
-23 -1 -2 3 1 9 8 6 7 26 13 43 13 20 0 30 4 26 11 -4 6 -14 8 -22 5 -9 -4
-23 -1 -31 6 -13 11 -14 11 -8 -1z"/>
<path d="M3590 3641 c12 -9 13 -13 2 -20 -11 -7 -11 -9 1 -14 10 -4 14 1 13
16 -1 11 -8 22 -16 24 -13 4 -13 3 0 -6z"/>
<path d="M1230 3635 c0 -5 5 -17 10 -25 5 -8 10 -10 10 -5 0 6 -5 17 -10 25
-5 8 -10 11 -10 5z"/>
<path d="M1130 3529 c0 -5 4 -8 9 -4 5 3 12 -5 14 -17 4 -20 4 -19 6 5 1 18
-4 27 -14 27 -8 0 -15 -5 -15 -11z"/>
<path d="M1210 3390 c0 -5 7 -10 15 -10 8 0 15 5 15 10 0 6 -7 10 -15 10 -8 0
-15 -4 -15 -10z"/>
<path d="M1260 3366 c0 -2 7 -9 15 -16 12 -10 15 -10 15 4 0 9 -7 16 -15 16
-8 0 -15 -2 -15 -4z"/>
<path d="M1188 3220 c-18 -21 -13 -26 11 -11 7 5 12 14 10 20 -3 7 -11 3 -21
-9z"/>
<path d="M1085 3200 c-3 -5 -3 -10 2 -10 4 0 1 -5 -7 -11 -12 -8 -12 -10 -1
-7 8 2 15 12 17 21 3 19 -2 22 -11 7z"/>
<path d="M1120 3200 c-8 -5 -10 -10 -5 -10 6 0 17 5 25 10 8 5 11 10 5 10 -5
0 -17 -5 -25 -10z"/>
<path d="M1230 3200 c0 -5 5 -10 10 -10 6 0 10 5 10 10 0 6 -4 10 -10 10 -5 0
-10 -4 -10 -10z"/>
<path d="M990 3119 c0 -5 5 -7 10 -4 6 3 10 8 10 11 0 2 -4 4 -10 4 -5 0 -10
-5 -10 -11z"/>
<path d="M1017 3113 c-4 -3 -7 -11 -7 -17 0 -6 5 -5 12 2 6 6 9 14 7 17 -3 3
-9 2 -12 -2z"/>
<path d="M2373 2113 c-8 -3 -13 -25 -13 -59 l0 -54 59 0 c72 0 95 -18 65 -51
-10 -12 -31 -27 -46 -35 -35 -18 -45 -50 -23 -74 20 -22 35 -18 35 11 0 10 10
27 22 37 50 40 68 62 68 85 0 42 -23 61 -81 67 l-54 5 2 38 c2 36 -4 42 -34
30z"/>
<path d="M722 2041 c-10 -6 -10 -10 3 -21 11 -9 15 -33 15 -102 0 -80 2 -89
18 -86 14 3 18 18 22 97 3 51 3 96 0 101 -9 13 -44 20 -58 11z"/>
<path d="M838 2043 c-10 -2 -19 -9 -19 -14 -5 -29 -2 -33 26 -34 30 0 30 0 33
-63 3 -56 1 -63 -15 -62 -40 5 -53 0 -53 -20 0 -18 7 -20 58 -20 l57 0 -2 91
c-1 95 -8 112 -48 122 -11 2 -28 2 -37 0z"/>
<path d="M1281 2033 c-24 -12 -35 -13 -44 -4 -14 14 -44 14 -52 0 -4 -5 1 -19
10 -29 15 -17 17 -31 11 -95 -6 -63 -4 -75 8 -75 21 0 26 12 36 81 5 33 14 67
21 75 18 22 56 17 78 -12 25 -32 26 -47 4 -80 -13 -20 -23 -25 -49 -22 -18 1
-36 -1 -40 -5 -14 -14 19 -37 53 -37 51 0 93 45 93 99 0 67 -20 95 -81 114 -9
3 -30 -2 -48 -10z"/>
<path d="M2190 2043 c-41 -16 -39 -51 3 -49 l32 1 3 -61 3 -61 -31 0 c-30 0
-67 -32 -50 -43 4 -3 34 -4 66 -2 l59 4 0 88 c0 66 -4 93 -15 104 -19 17 -50
26 -70 19z"/>
<path d="M2280 2036 c0 -8 5 -18 10 -21 6 -3 10 -47 10 -96 0 -81 2 -90 18
-87 14 3 18 18 22 97 4 71 2 98 -8 108 -18 17 -52 17 -52 -1z"/>
<path d="M3490 2037 c0 -9 7 -23 16 -32 9 -9 14 -18 11 -22 -3 -3 1 -23 10
-44 8 -22 13 -55 11 -74 -3 -29 -1 -35 14 -35 30 0 39 41 20 93 l-17 46 28 29
c15 15 27 31 27 35 0 3 -19 5 -42 4 -24 0 -51 2 -60 7 -13 6 -18 4 -18 -7z"/>
<path d="M3816 2033 c-4 -10 1 -24 12 -35 18 -19 18 -20 0 -58 -26 -51 -21
-104 9 -108 20 -3 22 0 17 27 -6 30 11 91 25 91 8 0 28 -22 80 -88 26 -33 36
-40 46 -32 15 13 10 35 -13 62 -12 14 -12 23 -3 46 7 16 11 47 9 68 -2 32 -7
40 -25 42 -21 3 -22 1 -17 -41 4 -27 2 -47 -4 -51 -6 -3 -33 16 -61 44 -54 54
-65 59 -75 33z"/>
<path d="M508 2029 c-24 -14 -23 -39 2 -39 19 0 21 -5 18 -57 -3 -52 -5 -58
-26 -61 -32 -5 -25 -36 9 -40 44 -5 59 20 59 99 l0 69 38 0 c54 0 62 -13 62
-98 0 -65 2 -73 18 -70 14 3 18 16 20 73 4 89 -2 109 -33 123 -32 15 -143 15
-167 1z"/>
<path d="M973 2030 c-28 -12 -30 -40 -3 -40 18 0 20 -7 20 -55 0 -57 1 -56
-49 -71 -23 -7 8 -34 38 -34 42 0 51 17 51 97 l0 73 38 0 c54 0 62 -13 62 -98
0 -65 2 -73 18 -70 14 3 17 16 20 83 4 109 -4 119 -100 122 -40 2 -83 -2 -95
-7z"/>
<path d="M1868 1933 c2 -60 5 -108 6 -108 0 0 43 2 95 5 l94 5 -1 80 c-1 73
-4 82 -27 103 -22 18 -38 22 -98 22 l-73 0 4 -107z m136 51 c10 -10 16 -33 16
-65 l0 -49 -55 0 -55 0 0 65 0 65 39 0 c23 0 46 -7 55 -16z"/>
<path d="M2075 2023 c4 -10 10 -40 13 -66 3 -37 8 -47 21 -45 12 2 17 17 19
57 3 56 -5 71 -42 71 -13 0 -16 -4 -11 -17z"/>
<path d="M2566 2024 c-11 -28 -6 -32 38 -27 68 8 86 -7 86 -72 l0 -55 -65 0
c-52 0 -66 -4 -74 -18 -6 -11 -6 -24 0 -33 5 -8 9 -9 9 -2 0 8 28 11 89 11 50
0 95 3 100 7 16 9 13 35 -4 35 -12 0 -15 14 -15 65 0 87 -17 105 -99 105 -44
0 -60 -4 -65 -16z"/>
<path d="M3204 2018 c3 -13 6 -60 6 -105 l0 -83 95 0 95 0 0 84 c0 79 -2 86
-26 105 -22 17 -41 21 -102 21 -72 0 -74 -1 -68 -22z m140 -31 c13 -10 17 -24
14 -62 l-3 -50 -52 -3 -53 -3 0 59 c0 32 3 62 7 65 11 12 68 8 87 -6z"/>
<path d="M3425 2023 c4 -10 10 -41 13 -70 4 -48 6 -51 23 -42 15 7 19 21 19
57 0 51 -12 72 -43 72 -14 0 -17 -4 -12 -17z"/>
<path d="M3620 2025 c-19 -22 -6 -29 50 -26 61 3 70 -11 70 -104 0 -58 2 -66
18 -63 14 3 17 16 20 85 2 72 0 85 -18 103 -25 25 -120 29 -140 5z"/>
<path d="M4025 2030 c-3 -6 1 -18 10 -27 15 -14 16 -29 10 -96 -6 -73 -5 -78
12 -75 12 2 21 16 26 41 4 20 10 53 15 74 4 20 14 41 23 46 48 30 107 -40 78
-92 -12 -21 -23 -26 -54 -27 -21 0 -40 -5 -42 -11 -7 -19 25 -34 63 -31 114 9
107 208 -7 208 -21 0 -44 -7 -52 -15 -13 -13 -16 -13 -27 0 -14 17 -46 20 -55
5z"/>
<path d="M1631 2006 c-7 -8 -21 -12 -31 -9 -11 3 -31 -2 -45 -11 -51 -34 -18
-103 62 -130 47 -16 48 -16 66 6 68 86 64 158 -8 158 -18 0 -38 -6 -44 -14z
m79 -44 c0 -15 -11 -44 -25 -64 -23 -34 -27 -36 -54 -27 -40 14 -83 55 -79 76
5 25 35 40 56 27 14 -9 21 -7 39 13 19 19 26 22 43 13 13 -7 20 -21 20 -38z"/>
<path d="M2941 2006 c-6 -7 -22 -11 -35 -9 -15 3 -32 -4 -51 -21 -15 -14 -22
-26 -16 -26 7 0 9 -4 6 -10 -16 -26 37 -70 106 -90 29 -9 53 9 78 57 15 29 14
86 -1 101 -16 16 -73 15 -87 -2z m67 -8 c19 -19 14 -61 -13 -100 -27 -40 -37
-41 -88 -6 -15 11 -24 24 -21 30 4 7 2 8 -5 4 -18 -12 -24 22 -7 40 11 10 25
14 41 10 17 -4 31 0 45 14 23 23 31 25 48 8z"/>
<path d="M3720 1669 c0 -5 5 -7 10 -4 6 3 10 8 10 11 0 2 -4 4 -10 4 -5 0 -10
-5 -10 -11z"/>
<path d="M2398 1642 c-1189 -2 -1348 -4 -1348 -17 0 -13 47 -15 363 -15 l363
0 -4 -38 c-5 -50 19 -76 63 -69 l31 5 -4 -68 c-4 -58 -1 -74 17 -99 25 -35 73
-61 112 -61 30 0 36 -13 37 -72 0 -19 -4 -25 -14 -21 -8 3 -14 0 -14 -6 0 -6
5 -11 11 -11 6 0 9 -8 7 -18 -3 -11 0 -19 7 -19 8 0 11 16 9 45 l-2 44 19 -31
c10 -17 26 -31 34 -31 8 0 15 -4 15 -9 0 -4 11 -6 25 -3 15 2 25 0 25 -7 0
-17 59 19 73 44 6 11 12 27 13 35 11 64 19 84 49 117 19 21 38 38 42 38 5 1
17 6 28 11 29 16 90 16 120 0 36 -19 75 -78 75 -113 0 -28 -57 -110 -68 -98
-3 3 4 12 16 21 25 18 29 34 7 34 -13 0 -19 20 -18 66 0 6 -5 11 -11 12 -76 8
-77 8 -100 -19 -17 -19 -22 -37 -20 -59 2 -17 -3 -46 -12 -63 -16 -32 -16 -32
4 -12 10 11 17 25 15 30 -3 6 6 -2 19 -16 17 -18 33 -25 51 -23 15 1 29 -1 31
-5 3 -4 -20 -7 -50 -7 -31 0 -51 2 -45 4 6 2 11 11 11 20 0 28 -28 -20 -32
-54 -2 -23 1 -29 17 -29 13 0 21 8 23 23 5 30 22 28 22 -3 0 -22 4 -24 35 -23
33 1 35 3 35 38 0 35 1 36 36 36 20 0 39 6 44 14 13 21 3 25 -15 6 -9 -9 -21
-16 -27 -16 -6 0 1 10 16 21 15 12 25 24 22 27 -3 3 -2 10 3 16 23 28 12 112
-20 157 -11 16 -15 30 -9 39 5 8 7 17 4 21 -9 15 37 87 74 116 39 31 116 63
152 63 29 0 105 -38 134 -66 29 -30 54 -120 37 -137 -6 -6 -11 -18 -11 -27 0
-29 -72 -80 -112 -80 -31 0 -87 41 -94 67 -14 52 33 112 75 98 28 -9 47 -51
31 -70 -7 -8 -17 -15 -23 -15 -6 0 -2 6 8 14 27 19 13 48 -22 44 -23 -2 -29
-9 -31 -33 -4 -34 18 -55 51 -47 35 8 47 22 47 54 0 44 -16 66 -54 74 -42 7
-94 -20 -103 -54 -10 -42 4 -102 29 -122 12 -11 29 -24 36 -30 16 -14 15 -39
-2 -46 -8 -3 -12 -12 -10 -19 7 -17 -27 -36 -53 -29 -12 3 -24 1 -27 -4 -4 -6
3 -8 16 -4 14 3 19 2 14 -6 -12 -20 -41 -13 -68 16 -14 15 -25 36 -25 47 0 19
33 54 50 55 12 0 37 -26 37 -39 0 -6 -9 -2 -20 9 -24 24 -36 20 -42 -15 -5
-21 -1 -26 26 -33 20 -6 34 -5 39 2 6 8 10 7 14 -1 6 -16 33 -17 33 -2 0 5 -4
8 -9 5 -13 -9 -27 16 -26 46 0 15 -1 25 -4 23 -2 -3 -9 -1 -15 4 -21 18 -64
16 -85 -3 -25 -23 -27 -56 -4 -99 9 -18 16 -35 15 -39 -1 -4 6 -4 15 -1 12 5
14 3 8 -8 -7 -12 -6 -12 8 -1 9 8 26 13 39 12 57 -5 102 37 103 95 0 27 3 30
30 30 17 0 43 8 58 18 14 9 31 17 37 17 5 0 20 20 31 45 17 36 20 57 16 95
l-6 50 35 0 c28 0 36 5 45 28 8 18 8 36 1 55 l-10 27 363 0 c310 0 364 2 368
15 4 8 3 16 -1 17 -4 2 -613 2 -1354 0z m-503 -46 c12 -11 12 -19 2 -40 -15
-32 -25 -33 -29 -4 -3 23 -28 34 -53 24 -21 -8 -6 -46 17 -46 16 0 19 5 15 21
-4 15 -3 19 5 11 19 -19 0 -50 -29 -47 -40 4 -54 38 -31 75 15 24 82 28 103 6z
m52 3 c-14 -8 -22 -8 -30 0 -8 8 -3 11 19 11 25 -1 27 -2 11 -11z m168 0 c55
-15 108 -53 139 -100 28 -41 47 -129 28 -129 -12 0 -57 -71 -53 -84 1 -5 -4
-5 -11 1 -7 6 -28 13 -46 15 -25 4 -37 0 -47 -15 -8 -12 -18 -16 -27 -11 -10
6 -10 4 1 -9 8 -10 11 -20 8 -23 -12 -12 22 -34 51 -34 33 0 49 24 31 46 -16
19 -36 17 -48 -3 -5 -10 -12 -15 -16 -12 -11 12 31 53 48 46 28 -11 52 -57 40
-76 -6 -9 -16 -15 -23 -13 -6 1 -9 -2 -5 -7 9 -16 -34 -33 -63 -26 -32 8 -75
53 -68 71 3 7 1 16 -5 20 -9 5 37 54 52 54 12 0 29 52 29 88 0 54 -22 80 -75
88 -34 5 -51 2 -70 -10 -14 -9 -23 -21 -20 -26 3 -5 1 -11 -4 -15 -11 -6 6
-55 24 -67 5 -4 24 -8 42 -8 35 0 50 23 38 60 -8 24 -53 28 -61 5 -9 -23 -23
-18 -17 6 13 50 91 41 114 -12 15 -38 -1 -79 -40 -102 -32 -19 -76 -22 -86 -7
-4 6 -11 8 -16 4 -10 -6 -42 29 -66 70 -15 25 -17 96 -3 96 5 0 7 6 4 14 -3 7
2 16 11 20 9 3 14 10 11 15 -11 18 96 80 139 81 11 0 38 -5 60 -11z m180 -26
c0 -36 2 -38 30 -38 24 0 31 5 33 23 4 26 -23 41 -41 23 -9 -10 -7 -16 8 -28
20 -15 20 -15 0 -11 -40 7 -25 68 17 68 50 0 66 -64 28 -106 -23 -23 -80 -34
-80 -15 0 16 -74 90 -105 106 -30 15 -29 15 40 15 l70 0 0 -37z m125 28 c0
-17 -18 -21 -24 -6 -3 9 0 15 9 15 8 0 15 -4 15 -9z m84 -7 c10 -25 6 -41 -5
-21 -13 22 -36 22 -48 -2 -8 -14 -7 -22 5 -32 12 -9 12 -14 2 -20 -15 -9 -38
8 -38 28 0 44 70 84 84 47z m116 -2 c-26 -13 -39 -15 -50 -8 -13 10 -13 9 -2
-6 12 -15 11 -20 -10 -40 -14 -13 -27 -31 -31 -40 -4 -11 -17 -18 -32 -18 -15
0 -23 4 -20 10 3 6 -1 7 -9 4 -9 -3 -16 -2 -16 4 0 11 61 43 70 37 4 -2 6 13
6 34 l-1 38 65 2 65 2 -35 -19z m270 8 c0 -5 -7 -7 -15 -4 -8 4 -15 8 -15 10
0 2 7 4 15 4 8 0 15 -4 15 -10z m118 -2 c20 -17 15 -66 -9 -78 -25 -14 -49 -6
-49 15 0 15 2 15 16 0 14 -13 19 -14 25 -3 14 21 10 37 -11 48 -15 8 -24 6
-40 -10 -18 -18 -20 -18 -28 -2 -5 9 -7 22 -5 29 5 14 83 15 101 1z m-578
-109 c0 -10 41 -23 63 -20 21 3 23 -31 2 -49 -15 -13 -39 -5 -30 11 4 5 2 9
-4 9 -5 0 -12 -4 -16 -9 -7 -12 -45 -10 -45 2 0 5 -7 1 -16 -7 -8 -9 -21 -16
-27 -17 -7 0 -20 -2 -30 -4 -14 -3 -18 1 -14 16 3 10 1 19 -4 19 -5 0 -9 6 -9
14 0 12 69 32 93 27 4 0 6 2 6 7 -1 4 -1 16 0 27 2 20 2 20 16 1 8 -11 15 -23
15 -27z m360 -79 c0 -5 -4 -10 -10 -10 -5 0 -10 5 -10 10 0 6 5 10 10 10 6 0
10 -4 10 -10z m-325 -139 c-3 -2 -11 1 -18 8 -19 15 -39 -9 -44 -52 -2 -24 0
-28 7 -17 6 9 10 10 10 3 0 -24 -20 -23 -32 2 -13 29 3 72 31 78 16 3 53 -14
46 -22z m205 -44 c11 -5 9 -6 -4 -4 -11 1 -21 9 -23 17 -3 10 -2 11 4 4 4 -6
15 -14 23 -17z m-200 -31 c-4 -4 -16 -4 -26 2 -16 9 -14 10 8 9 15 -1 23 -6
18 -11z m-25 -16 c3 -5 2 -10 -4 -10 -5 0 -13 5 -16 10 -3 6 -2 10 4 10 5 0
13 -4 16 -10z"/>
<path d="M1940 1371 c0 -7 -4 -9 -10 -6 -5 3 -10 2 -10 -4 0 -5 5 -13 10 -16
6 -3 10 -1 10 5 0 7 8 9 23 4 12 -3 20 -5 17 -2 -32 26 -40 30 -40 19z"/>
<path d="M2412 1485 c4 -4 0 -14 -10 -22 -9 -8 -11 -12 -4 -8 7 4 21 1 30 -7
15 -11 15 -11 5 3 -7 9 -10 18 -7 21 3 3 -1 9 -8 14 -7 4 -10 4 -6 -1z"/>
<path d="M3595 1469 c-4 -6 -4 -13 0 -17 3 -4 -9 -14 -29 -22 l-35 -15 20 -24
c17 -21 23 -23 40 -13 11 7 19 8 19 2 0 -5 4 -10 8 -10 7 0 9 56 4 98 -2 15
-18 16 -27 1z"/>
<path d="M1225 1459 c-10 -14 -1 -21 19 -13 9 3 13 10 10 15 -7 12 -21 11 -29
-2z"/>
<path d="M3930 1340 c0 -5 7 -10 15 -10 8 0 15 5 15 10 0 6 -7 10 -15 10 -8 0
-15 -4 -15 -10z"/>
<path d="M2522 1274 c-2 -19 -1 -34 2 -34 7 0 13 61 6 65 -3 2 -7 -12 -8 -31z"/>
<path d="M3592 1299 c2 -6 8 -10 13 -10 5 0 11 4 13 10 2 6 -4 11 -13 11 -9 0
-15 -5 -13 -11z"/>
<path d="M2502 1270 c0 -14 2 -19 5 -12 2 6 2 18 0 25 -3 6 -5 1 -5 -13z"/>
<path d="M2744 1268 c3 -12 0 -18 -9 -18 -8 0 -15 -4 -15 -9 0 -5 9 -7 20 -4
23 6 24 12 9 33 -9 13 -10 12 -5 -2z"/>
<path d="M3793 1250 c-13 -5 -23 -7 -23 -4 0 3 -10 -2 -22 -10 -12 -9 -30 -16
-40 -16 -10 0 -18 -4 -18 -10 0 -5 7 -7 16 -3 14 5 16 2 10 -23 -4 -16 -9 -49
-13 -73 l-6 -44 34 7 c18 3 37 12 41 19 6 9 13 6 26 -10 22 -28 99 -40 126
-20 17 13 17 15 -13 44 -35 35 -38 43 -16 43 8 0 15 7 15 15 0 8 -9 15 -19 15
-25 0 -36 18 -32 52 2 24 -1 28 -21 27 -13 0 -33 -4 -45 -9z m-6 -46 c-3 -3
-12 -4 -19 -1 -8 3 -5 6 6 6 11 1 17 -2 13 -5z"/>
<path d="M4100 1220 c-10 -6 -11 -10 -2 -10 6 0 12 -9 12 -20 0 -11 -4 -20 -9
-20 -15 0 -19 -35 -5 -48 8 -7 27 -15 44 -18 29 -6 30 -5 30 29 0 19 -6 37
-12 40 -10 3 -10 9 -1 25 11 18 10 20 -1 16 -8 -3 -17 -1 -21 5 -8 13 -16 14
-35 1z m40 -74 c0 -3 -4 -8 -10 -11 -5 -3 -10 -1 -10 4 0 6 5 11 10 11 6 0 10
-2 10 -4z"/>
<path d="M2047 1171 c6 -7 9 -20 6 -27 -3 -8 -3 -14 0 -14 14 0 14 30 -1 41
-14 11 -15 11 -5 0z"/>
<path d="M2766 1163 c-6 -14 -5 -15 5 -6 7 7 10 15 7 18 -3 3 -9 -2 -12 -12z"/>
<path d="M4250 1170 c0 -5 -3 -9 -7 -8 -5 1 -18 -1 -30 -6 -17 -5 -23 -15 -23
-36 0 -34 29 -55 61 -45 11 4 26 1 34 -5 23 -19 30 12 11 49 -9 16 -16 37 -16
46 0 8 -7 15 -15 15 -8 0 -15 -4 -15 -10z"/>
<path d="M3582 1105 c-6 -14 -17 -25 -24 -26 -7 0 -2 -5 12 -11 l25 -11 -25
-6 c-14 -3 -25 -13 -25 -21 1 -23 15 -60 24 -60 5 0 6 -11 3 -25 -2 -14 -10
-25 -18 -25 -20 0 -44 -41 -44 -77 0 -31 -15 -53 -22 -33 -5 16 -70 28 -96 19
-25 -10 -29 6 -8 34 15 19 48 22 77 7 16 -9 19 -7 19 9 0 41 -75 66 -113 38
-27 -19 -46 -86 -42 -144 5 -69 18 -91 60 -99 50 -9 87 7 107 47 12 21 18 27
18 16 0 -29 56 -80 79 -72 11 3 23 0 27 -6 4 -8 3 -9 -4 -5 -7 4 -20 2 -29 -3
-16 -9 -16 -10 4 -11 31 0 52 10 47 23 -2 7 5 18 16 25 20 12 20 11 10 -7 -8
-17 -8 -19 4 -15 17 7 31 37 19 41 -5 2 -7 19 -5 38 6 53 -19 85 -66 85 -21 0
-43 -5 -50 -12 -15 -15 -16 0 -2 36 10 28 45 35 81 16 16 -9 19 -7 19 14 0 18
-9 30 -30 41 -16 8 -32 14 -34 13 -2 -2 -8 1 -13 6 -4 5 1 7 14 4 24 -6 33 12
33 74 0 32 3 37 27 40 40 5 39 25 -1 38 -20 6 -36 16 -36 21 0 19 -27 8 -38
-16z m-137 -350 c0 -26 -3 -30 -29 -30 -32 0 -53 23 -43 49 5 12 16 16 39 14
29 -3 33 -6 33 -33z m180 0 c0 -26 -4 -30 -31 -33 -27 -3 -33 1 -38 23 -9 36
0 47 37 43 28 -3 32 -7 32 -33z"/>
<path d="M909 1080 c-13 -10 -21 -19 -17 -20 4 0 3 -13 -2 -30 -10 -34 0 -45
33 -36 28 7 60 60 52 86 -8 25 -36 26 -66 0z m58 -26 c-3 -3 -12 -4 -19 -1 -8
3 -5 6 6 6 11 1 17 -2 13 -5z"/>
<path d="M3344 988 c-9 -14 -13 -68 -5 -68 3 0 24 7 46 15 35 12 37 14 13 15
-15 0 -29 4 -32 9 -3 4 7 6 22 3 l27 -5 -27 22 c-30 24 -34 25 -44 9z"/>
<path d="M1690 960 c0 -6 7 -10 15 -10 8 0 15 2 15 4 0 2 -7 6 -15 10 -8 3
-15 1 -15 -4z"/>
<path d="M1588 948 c-19 -7 -28 -16 -27 -31 l0 -22 10 21 c6 11 23 25 37 31
34 14 16 15 -20 1z"/>
<path d="M2407 949 c7 -7 15 -10 18 -7 3 3 -2 9 -12 12 -14 6 -15 5 -6 -5z"/>
<path d="M4115 953 c-29 -6 -49 -51 -30 -69 25 -25 75 -22 92 5 9 15 9 25 0
45 -12 25 -20 28 -62 19z"/>
<path d="M1191 934 c0 -11 3 -14 6 -6 3 7 2 16 -1 19 -3 4 -6 -2 -5 -13z"/>
<path d="M1898 943 c7 -3 16 -2 19 1 4 3 -2 6 -13 5 -11 0 -14 -3 -6 -6z"/>
<path d="M2468 943 c7 -3 16 -2 19 1 4 3 -2 6 -13 5 -11 0 -14 -3 -6 -6z"/>
<path d="M1061 932 c-23 -8 -11 -78 23 -135 33 -55 38 -75 9 -39 -13 16 -14
15 -8 -5 4 -16 2 -22 -7 -20 -7 2 -10 2 -5 0 4 -3 7 -16 7 -29 0 -20 5 -24 28
-23 15 1 36 -2 47 -7 18 -7 19 -6 5 11 -14 17 -13 18 5 12 14 -5 11 1 -10 18
l-30 25 59 -24 c76 -31 93 -24 98 41 l3 48 -39 -2 c-22 -1 -45 -4 -51 -7 -7
-2 -22 6 -34 20 -17 19 -19 29 -11 50 14 36 -2 61 -44 66 -18 2 -39 2 -45 0z"/>
<path d="M1453 933 c-45 -8 -63 -48 -63 -138 0 -97 12 -115 79 -115 53 0 90
33 92 82 2 33 4 65 7 106 4 44 18 21 18 -30 0 -58 -3 -56 69 -42 26 5 33 2 41
-18 22 -51 -4 -74 -69 -59 -31 8 -39 6 -44 -6 -9 -24 25 -43 74 -43 58 0 93
33 93 87 0 59 -22 83 -76 83 -37 0 -44 3 -44 20 0 20 2 21 78 24 23 1 44 28
31 41 -5 5 -40 8 -77 7 -55 -2 -70 -7 -84 -25 -17 -22 -17 -22 -32 -2 -8 11
-13 22 -11 25 4 6 -51 8 -82 3z m51 -65 c33 -46 14 -148 -27 -148 -29 1 -41
21 -45 77 -3 46 0 63 13 76 22 23 41 21 59 -5z"/>
<path d="M1814 929 c-40 -12 -54 -44 -54 -127 0 -82 15 -114 56 -123 38 -7
101 16 108 39 6 20 8 70 7 128 -2 70 -49 104 -117 83z m57 -55 c19 -23 17
-133 -2 -145 -38 -24 -61 -1 -67 65 -4 45 -1 61 13 76 22 24 38 25 56 4z"/>
<path d="M1843 843 c-3 -10 -8 -21 -10 -25 -2 -4 1 -10 7 -13 6 -4 10 -3 9 2
-4 22 2 43 11 38 6 -3 10 -1 10 4 0 18 -20 12 -27 -6z"/>
<path d="M1866 813 c-6 -14 -5 -15 5 -6 7 7 10 15 7 18 -3 3 -9 -2 -12 -12z"/>
<path d="M2195 905 c-29 -28 -36 -92 -20 -180 5 -31 55 -71 70 -57 4 4 2 -4
-5 -17 -8 -17 -9 -26 -1 -34 6 -6 11 -21 11 -33 0 -17 5 -22 19 -19 12 2 21
-3 24 -15 4 -14 -2 -20 -24 -25 -29 -7 -55 -38 -44 -54 3 -5 -1 -12 -7 -14 -9
-4 -10 -8 -2 -14 21 -16 23 -51 3 -56 -19 -5 -32 15 -23 37 3 8 1 23 -4 32 -7
12 -6 26 1 41 15 34 -6 54 -31 30 -10 -11 -13 -20 -7 -25 6 -4 11 -13 13 -21
3 -12 0 -12 -13 -1 -8 7 -18 10 -22 6 -3 -3 -2 -6 4 -6 5 0 8 -13 5 -30 -4
-26 -6 -28 -19 -14 -10 10 -12 19 -5 27 5 7 9 24 8 39 -1 14 3 26 9 25 6 -1 9
16 8 40 -2 34 1 43 17 48 26 8 26 25 0 18 -11 -3 -32 2 -46 12 -25 16 -28 16
-36 1 -5 -9 -17 -16 -27 -16 -9 0 -39 -21 -65 -46 -37 -35 -51 -43 -57 -33 -6
10 -8 7 -6 -9 0 -12 4 -22 8 -22 4 0 14 -2 21 -5 8 -3 23 3 35 14 17 17 22 18
27 6 3 -9 -1 -15 -9 -15 -8 0 -22 -14 -30 -30 -15 -29 -17 -30 -33 -14 -9 10
-17 20 -17 24 0 4 -7 13 -15 21 -18 18 -64 23 -54 7 5 -7 2 -9 -8 -5 -10 3
-24 -4 -37 -19 -18 -21 -20 -28 -9 -47 l13 -22 3 23 c2 12 7 22 12 22 4 0 3
-15 -2 -34 -13 -41 -34 -38 -43 5 -7 31 -34 41 -31 12 1 -11 -9 -19 -31 -24
-32 -6 -33 -6 -33 27 0 24 5 34 16 34 30 0 7 25 -24 27 -31 1 -57 -17 -34 -25
7 -2 12 -23 12 -47 0 -55 -23 -67 -44 -23 -14 28 -14 32 0 42 20 15 8 45 -20
50 -54 11 -107 13 -112 5 -3 -6 3 -18 13 -27 13 -11 20 -31 21 -57 1 -29 -1
-36 -8 -25 -8 13 -10 12 -10 -2 0 -10 5 -18 11 -18 5 0 8 -4 5 -9 -3 -5 -17
-8 -30 -8 -25 0 -25 0 -6 26 23 32 37 76 21 67 -6 -4 -11 -1 -11 8 0 21 -51
46 -93 46 -20 0 -46 -9 -62 -22 l-27 -21 6 21 c4 12 3 22 -2 22 -5 0 -12 -13
-14 -29 -2 -17 -1 -28 4 -25 4 3 8 1 8 -5 0 -5 -4 -13 -10 -16 -5 -3 -10 -11
-10 -16 0 -6 5 -7 12 -3 7 4 8 3 4 -5 -6 -9 -11 -9 -22 0 -17 14 -18 45 -3 55
8 4 8 9 0 17 -6 6 -11 19 -11 29 0 22 -40 60 -57 54 -7 -3 -15 -1 -18 4 -3 5
5 11 17 13 13 2 1 5 -25 6 -27 0 -46 -3 -43 -8 7 -11 -17 -21 -50 -21 -14 0
-33 -4 -43 -9 -14 -8 -17 -6 -17 12 1 16 -4 21 -17 19 -9 -2 -20 4 -23 13 -7
17 -54 21 -54 4 0 -6 7 -9 15 -5 9 3 15 0 15 -9 0 -8 9 -20 20 -27 11 -7 20
-16 20 -21 0 -4 -5 -5 -12 -1 -7 5 -8 3 -4 -5 5 -7 14 -10 22 -7 11 4 14 -10
14 -77 0 -45 -4 -77 -8 -71 -8 13 -42 15 -42 2 0 -4 -9 -8 -21 -8 -11 0 -17
-5 -14 -10 4 -6 11 -8 16 -5 5 4 9 2 9 -3 0 -5 -11 -12 -24 -14 -19 -4 -22 -1
-18 15 3 14 1 18 -6 13 -7 -4 -12 -1 -12 8 0 8 -8 14 -19 13 -30 -2 -25 -54 6
-61 12 -4 23 -14 24 -24 0 -14 2 -14 6 -2 10 25 27 31 41 13 10 -14 12 -12 12
20 0 26 4 37 15 37 11 0 14 -7 9 -25 -4 -16 -2 -25 6 -25 12 0 8 -63 -6 -112
-7 -23 15 -23 23 0 4 9 14 23 24 29 9 7 22 27 28 44 9 26 8 30 -5 25 -8 -3
-12 -2 -9 4 3 6 22 10 42 10 32 0 34 -2 22 -17 -13 -15 -12 -15 7 -5 12 6 24
8 28 5 3 -3 6 -2 6 4 0 14 26 24 45 17 10 -4 13 -13 10 -25 -4 -11 -2 -19 3
-19 14 0 35 28 28 38 -3 6 1 15 9 22 10 9 15 9 15 1 0 -6 3 -10 8 -9 13 4 52
-13 52 -23 0 -5 7 -9 15 -9 8 0 15 4 15 9 0 4 10 8 23 8 65 1 82 4 69 12 -11
7 -11 9 2 14 11 4 16 1 16 -12 0 -10 6 -23 13 -29 7 -6 14 -25 15 -41 2 -26
-1 -31 -20 -30 -17 1 -19 2 -5 6 10 3 14 9 10 16 -8 12 -9 17 -12 40 -1 6 -9
2 -19 -11 -10 -13 -25 -23 -33 -22 -47 7 -60 -31 -24 -68 14 -14 25 -20 25
-14 0 5 24 13 53 17 34 5 46 10 34 14 -16 6 -15 10 13 33 21 17 31 35 33 57 2
28 5 31 37 32 19 1 40 0 45 -1 19 -5 90 -6 105 -2 9 2 22 12 29 23 10 17 10
24 -1 36 -12 15 -11 15 9 2 19 -11 20 -16 9 -29 -8 -8 -13 -28 -11 -45 1 -16
0 -22 -2 -13 -2 10 -11 18 -20 18 -10 0 -14 -6 -10 -20 3 -13 0 -20 -9 -20 -8
0 -14 -7 -14 -15 0 -8 -6 -13 -12 -11 -49 15 -69 16 -66 2 2 -8 -7 -23 -20
-34 -17 -15 -21 -26 -16 -46 5 -22 8 -23 20 -12 7 8 19 17 26 20 10 5 10 7 1
12 -18 8 -16 34 2 34 8 0 15 -8 15 -18 0 -12 9 -18 28 -20 15 -1 29 -7 30 -12
2 -6 12 -10 22 -10 10 0 20 -5 22 -12 3 -7 12 -4 27 11 12 12 28 20 34 18 7
-2 23 8 36 22 18 19 23 21 18 7 -6 -16 -4 -17 20 -11 40 10 44 20 46 95 0 20
5 25 28 26 31 1 37 -13 18 -47 -6 -11 -9 -25 -6 -32 2 -6 10 1 18 17 16 33 39
46 39 22 0 -9 -6 -16 -14 -16 -16 0 -26 -31 -25 -75 l1 -30 9 33 c7 22 16 32
29 32 11 0 20 7 20 15 0 15 15 18 72 18 15 0 25 4 22 8 -3 5 2 12 10 15 9 3
13 10 10 15 -3 5 -10 6 -16 3 -7 -4 -8 -2 -4 4 4 7 13 12 21 12 7 0 16 6 19
13 3 6 3 1 -1 -13 -5 -21 -4 -23 9 -12 13 10 17 10 22 -3 3 -9 0 -15 -9 -15
-18 0 -18 -5 -5 -30 8 -15 5 -19 -15 -24 -34 -9 -32 -24 3 -22 25 1 36 6 65
32 7 6 19 14 27 17 8 3 -4 3 -28 0 -36 -5 -41 -3 -36 11 3 9 10 16 16 16 5 0
6 -4 3 -10 -9 -14 7 -12 27 3 12 10 14 17 7 28 -8 11 -12 11 -16 2 -6 -15 -33
-17 -33 -3 0 9 17 14 48 13 18 -1 15 14 -5 26 -10 5 -15 12 -12 15 3 4 19 -4
34 -16 29 -22 98 -33 144 -23 21 5 23 10 18 40 -5 28 -3 35 11 35 15 0 15 2 2
10 -13 8 -13 13 -2 31 7 11 11 24 8 27 -3 3 -6 0 -6 -7 0 -7 -4 -10 -9 -6 -5
3 -12 1 -16 -5 -3 -5 -17 -10 -29 -10 -30 0 -52 -25 -38 -43 7 -8 7 -19 -1
-34 -10 -18 -14 -19 -25 -7 -11 12 -10 14 3 14 19 0 20 19 0 26 -14 6 -13 8 2
20 17 13 17 15 1 28 -10 7 -18 18 -18 24 0 22 -28 20 -38 -4 -8 -15 -17 -22
-27 -18 -19 8 -20 34 -1 34 24 0 28 18 15 58 -7 20 -12 42 -11 48 1 5 -7 20
-18 32 -26 27 -25 27 9 41 49 21 67 90 34 130 -20 23 -81 35 -100 19 -18 -15
-16 3 3 31 12 16 19 20 27 12 14 -14 30 -14 22 -1 -8 13 1 13 26 0 16 -9 19
-7 19 14 0 50 -83 64 -125 21z m90 -150 c0 -25 -4 -30 -27 -33 -22 -3 -30 2
-40 23 -14 31 1 47 42 43 21 -3 25 -8 25 -33z m-192 -215 c-3 -12 -12 -16 -31
-12 -37 7 -45 24 -20 43 19 14 23 15 38 1 10 -8 15 -22 13 -32z m-893 -20 c0
-5 -6 -10 -14 -10 -21 0 -30 -33 -12 -46 20 -14 21 -34 1 -34 -11 0 -15 -11
-15 -40 0 -29 -4 -40 -15 -40 -11 0 -15 11 -15 40 0 22 -4 40 -10 40 -5 0 -10
7 -10 15 0 8 5 15 10 15 6 0 10 7 10 16 0 29 21 54 45 54 14 0 25 -4 25 -10z
m230 -30 c0 -5 -13 -10 -28 -10 -15 0 -34 -6 -41 -12 -11 -11 -11 -9 -2 10 8
15 21 22 41 22 17 0 30 -4 30 -10z m152 1 c-8 -4 -13 -11 -13 -15 3 -18 0 -26
-9 -26 -5 0 -10 11 -10 25 0 19 5 25 23 25 16 0 18 -3 9 -9z m484 1 c6 -4 8
-16 4 -26 -6 -18 -7 -18 -15 5 l-8 24 -4 -22 c-5 -24 -23 -32 -23 -10 0 13 19
37 30 37 3 0 10 -4 16 -8z m-183 -31 c3 -11 -1 -22 -8 -24 -8 -4 -10 3 -7 19
5 29 8 30 15 5z m-486 -28 c-15 -16 -17 -16 -17 -1 0 9 6 18 13 21 20 7 22 -2
4 -20z m63 3 c0 -3 -4 -8 -10 -11 -5 -3 -10 -1 -10 4 0 6 5 11 10 11 6 0 10
-2 10 -4z m499 -33 c9 -19 9 -23 -2 -23 -9 0 -14 10 -14 25 0 29 0 29 16 -2z
m331 17 c0 -5 -5 -10 -11 -10 -5 0 -7 5 -4 10 3 6 8 10 11 10 2 0 4 -4 4 -10z
m-891 -26 c5 4 12 2 16 -4 4 -6 -5 -10 -22 -10 -18 0 -33 8 -41 20 -12 20 -12
21 12 5 14 -9 30 -14 35 -11z m345 18 c8 -13 -7 -27 -31 -28 -15 0 -21 5 -20
18 1 18 41 26 51 10z m328 -6 c25 -11 12 -26 -22 -26 -19 0 -33 7 -40 20 -10
18 -8 19 17 17 15 -2 36 -7 45 -11z m78 -17 c-5 -18 -7 -36 -4 -40 3 -5 0 -9
-6 -9 -13 0 -11 48 3 68 15 19 16 14 7 -19z m-580 1 c0 -5 -4 -10 -10 -10 -5
0 -10 5 -10 10 0 6 5 10 10 10 6 0 10 -4 10 -10z m82 -12 c-7 -7 -12 -8 -12
-2 0 14 12 26 19 19 2 -3 -1 -11 -7 -17z m251 15 c4 -3 1 -13 -6 -21 -7 -9 -8
-17 -2 -19 22 -8 39 -22 33 -29 -4 -3 -14 1 -23 10 -9 9 -21 16 -26 16 -14 0
-11 30 4 31 6 0 3 4 -8 9 -20 8 -20 9 1 9 11 1 24 -2 27 -6z m-573 -23 c0 -13
-11 -13 -30 0 -12 8 -11 10 8 10 12 0 22 -4 22 -10z m565 -54 c8 -13 6 -20 -7
-30 -10 -7 -15 -16 -11 -19 3 -4 -7 -7 -23 -7 -22 0 -25 -3 -14 -10 17 -10 14
-15 -18 -24 -15 -5 -24 -3 -28 8 -7 17 -34 22 -34 6 0 -5 -6 -10 -14 -10 -11
0 -12 5 -3 25 13 28 42 33 51 10 3 -8 10 -15 16 -15 5 0 10 7 10 15 0 8 9 15
20 15 21 0 24 12 10 45 l-9 20 0 -20 c-1 -16 -3 -17 -11 -5 -12 19 7 31 34 21
11 -5 25 -16 31 -25z m-365 14 c0 -5 -7 -10 -16 -10 -8 0 -12 5 -9 10 3 6 10
10 16 10 5 0 9 -4 9 -10z m-70 -70 c0 -5 -5 -10 -11 -10 -5 0 -7 5 -4 10 3 6
8 10 11 10 2 0 4 -4 4 -10z"/>
<path d="M2040 549 c0 -5 5 -7 10 -4 6 3 10 8 10 11 0 2 -4 4 -10 4 -5 0 -10
-5 -10 -11z"/>
<path d="M2048 393 c7 -3 16 -2 19 1 4 3 -2 6 -13 5 -11 0 -14 -3 -6 -6z"/>
<path d="M2395 907 c-44 -38 -55 -160 -19 -214 10 -17 24 -23 50 -23 69 0 116
46 106 106 -7 48 -80 77 -114 46 -16 -14 -18 -13 -18 2 0 34 20 56 50 56 17 0
30 -4 30 -8 0 -4 11 -9 25 -10 25 -2 25 -2 8 26 -10 15 -22 30 -28 34 -20 15
-64 8 -90 -15z m70 -137 c-4 -11 -2 -20 4 -20 6 0 8 -7 5 -15 -4 -8 -10 -15
-15 -15 -4 0 -6 6 -3 14 3 8 -3 16 -16 19 -17 4 -19 3 -9 -9 13 -15 9 -17 -15
-8 -16 6 -22 35 -9 47 3 4 19 7 35 7 25 0 28 -3 23 -20z"/>
<path d="M2530 915 c-8 -9 -8 -15 -2 -15 12 0 26 19 19 26 -2 2 -10 -2 -17
-11z"/>
<path d="M2556 905 c-10 -34 -7 -36 37 -30 49 8 73 -10 62 -44 -6 -21 -75 -81
-93 -81 -12 0 -19 -28 -14 -52 3 -18 44 -24 127 -18 64 4 69 40 6 40 -21 0
-40 3 -44 6 -3 3 10 21 29 40 23 24 34 44 34 63 0 16 6 32 13 34 10 4 10 6 0
6 -7 1 -13 8 -13 16 0 42 -133 60 -144 20z"/>
<path d="M2782 923 c-35 -7 -53 -44 -56 -119 -4 -110 26 -145 109 -130 26 5
35 4 33 -6 -2 -7 6 -13 16 -13 17 0 20 8 20 65 1 52 -3 69 -19 86 -24 25 -87
38 -105 21 -10 -9 -11 -7 -5 13 4 14 13 28 19 32 17 12 61 9 74 -4 9 -9 12 -7
12 9 0 35 -46 57 -98 46z m63 -168 c0 -25 -4 -31 -26 -33 -19 -2 -29 4 -39 23
-12 23 -12 28 0 36 8 5 26 8 40 7 21 -3 25 -8 25 -33z"/>
<path d="M2820 761 c0 -5 5 -13 10 -16 6 -3 10 -2 10 4 0 5 -4 13 -10 16 -5 3
-10 2 -10 -4z"/>
<path d="M3161 911 c-11 -11 -21 -25 -21 -30 0 -15 18 -23 25 -11 10 15 62 12
79 -6 21 -21 8 -44 -49 -85 -44 -32 -63 -65 -52 -92 7 -19 99 -21 143 -2 45
19 36 35 -22 35 -24 0 -44 3 -44 8 0 4 16 23 35 42 29 28 35 42 35 75 0 54
-17 75 -67 82 -33 4 -45 1 -62 -16z"/>
<path d="M4520 900 c0 -5 5 -10 10 -10 6 0 10 5 10 10 0 6 -4 10 -10 10 -5 0
-10 -4 -10 -10z"/>
<path d="M1171 888 c0 -9 -4 -25 -7 -35 -5 -17 -5 -17 6 0 6 10 9 25 7 35 -4
15 -5 15 -6 0z"/>
<path d="M3495 890 c-3 -5 -1 -10 4 -10 6 0 11 5 11 10 0 6 -2 10 -4 10 -3 0
-8 -4 -11 -10z"/>
<path d="M2230 856 c0 -2 7 -7 16 -10 8 -3 12 -2 9 4 -6 10 -25 14 -25 6z"/>
<path d="M2478 843 c7 -3 16 -2 19 1 4 3 -2 6 -13 5 -11 0 -14 -3 -6 -6z"/>
<path d="M3964 826 c-3 -8 -1 -23 4 -32 9 -16 11 -15 21 5 12 22 7 41 -10 41
-5 0 -12 -6 -15 -14z"/>
<path d="M4650 810 c0 -23 5 -31 25 -36 37 -9 40 0 15 35 -27 39 -40 39 -40 1z"/>
<path d="M1955 800 c-16 -27 146 -31 181 -5 17 13 9 14 -78 15 -55 0 -100 -4
-103 -10z"/>
<path d="M2927 804 c-16 -16 10 -24 83 -24 81 0 110 6 110 21 0 10 -183 13
-193 3z"/>
<path d="M4560 790 c0 -11 4 -20 8 -20 4 0 8 9 8 20 0 11 -4 20 -8 20 -4 0 -8
-9 -8 -20z"/>
<path d="M3837 783 c-10 -10 -8 -53 2 -53 10 0 21 24 21 46 0 15 -12 19 -23 7z"/>
<path d="M2009 768 c-8 -28 -5 -35 14 -30 20 5 20 6 1 12 -16 7 -14 8 11 12
l30 5 -27 2 c-16 0 -28 0 -29 -1z"/>
<path d="M3928 728 c-28 -34 -23 -64 14 -82 17 -9 41 -16 52 -15 18 0 17 2 -5
10 -25 9 -26 12 -18 50 14 61 -9 80 -43 37z"/>
<path d="M4046 734 c-11 -7 -16 -17 -13 -21 4 -4 15 1 24 10 22 21 14 30 -11
11z"/>
<path d="M4482 710 c7 -11 18 -20 25 -20 7 0 18 -9 25 -20 7 -11 21 -20 30
-20 13 0 18 -8 18 -25 0 -14 4 -25 9 -25 4 0 20 11 35 25 17 15 39 25 58 25
26 0 29 2 18 15 -7 8 -20 15 -30 15 -10 0 -21 7 -24 15 -3 9 -16 15 -28 14
-43 -4 -69 1 -63 11 3 6 -5 10 -19 10 -13 0 -27 -6 -30 -12 -5 -10 -7 -10 -12
0 -3 6 -10 12 -15 12 -5 0 -4 -9 3 -20z"/>
<path d="M4365 710 c-9 -15 4 -30 25 -30 13 0 17 5 14 14 -7 18 -32 28 -39 16z"/>
<path d="M1381 684 c0 -11 3 -14 6 -6 3 7 2 16 -1 19 -3 4 -6 -2 -5 -13z"/>
<path d="M1250 686 c0 -1 12 -16 26 -31 20 -22 25 -36 21 -59 -5 -36 0 -56 15
-56 6 0 8 6 5 14 -3 7 0 22 7 32 8 11 17 30 21 42 6 21 4 23 -13 18 -17 -6
-19 -3 -15 14 5 18 2 20 -21 14 -16 -4 -26 -2 -26 5 0 6 -4 11 -10 11 -5 0
-10 -2 -10 -4z"/>
<path d="M1910 680 c-8 -5 -10 -10 -5 -10 6 0 -1 -7 -15 -14 -24 -14 -24 -14
10 -11 19 2 38 4 43 4 4 1 7 8 7 16 0 9 -6 12 -17 8 -11 -4 -14 -3 -9 5 9 14
6 15 -14 2z"/>
<path d="M4304 677 c-5 -15 -54 -18 -54 -4 0 5 -15 7 -32 5 -26 -2 -34 -8 -36
-27 -4 -22 -1 -24 32 -18 30 5 36 3 36 -12 0 -31 -33 -53 -62 -42 -30 11 -48
-2 -48 -35 0 -27 -17 -41 -33 -25 -8 8 -8 14 1 23 17 17 15 25 -8 31 -13 3
-20 0 -20 -9 0 -7 -10 -23 -22 -34 -22 -20 -23 -20 -36 -3 -11 16 -13 11 -10
-32 3 -44 6 -50 26 -51 12 -1 25 3 28 7 9 16 22 10 18 -8 -6 -26 16 -49 54
-56 24 -5 34 -3 38 8 4 8 19 15 34 15 37 0 49 19 24 37 -10 7 -26 20 -36 27
-9 8 -19 11 -23 8 -3 -4 -3 1 1 11 8 22 15 21 42 -3 26 -24 29 -14 6 18 -8 12
-14 30 -12 39 3 17 38 28 38 12 0 -5 9 -9 19 -9 15 0 19 5 16 21 -2 12 -10 27
-16 35 -13 16 -13 16 16 32 16 9 24 7 42 -10 27 -26 36 -20 27 16 -8 32 -41
54 -50 33z m-191 -206 c-5 -20 27 -38 47 -26 21 13 8 -11 -14 -27 -22 -16 -25
-16 -40 1 -13 14 -14 24 -7 45 12 30 22 35 14 7z"/>
<path d="M4430 665 c0 -8 7 -15 15 -15 8 0 15 -9 15 -20 0 -11 5 -20 10 -20
13 0 13 6 -5 40 -17 32 -35 40 -35 15z"/>
<path d="M490 659 c0 -14 40 -36 70 -39 21 -3 60 11 60 20 0 4 -19 10 -42 13
-24 2 -53 8 -65 12 -16 5 -23 3 -23 -6z"/>
<path d="M1228 663 c7 -3 16 -2 19 1 4 3 -2 6 -13 5 -11 0 -14 -3 -6 -6z"/>
<path d="M1400 659 c0 -5 5 -7 10 -4 6 3 10 8 10 11 0 2 -4 4 -10 4 -5 0 -10
-5 -10 -11z"/>
<path d="M3016 655 c-7 -20 21 -85 37 -85 8 0 20 11 27 25 12 22 11 27 -5 45
-10 11 -22 17 -26 14 -5 -3 -9 0 -9 5 0 16 -17 13 -24 -4z"/>
<path d="M3537 659 c7 -7 15 -10 18 -7 3 3 -2 9 -12 12 -14 6 -15 5 -6 -5z"/>
<path d="M3690 661 c0 -10 46 -31 65 -31 30 0 14 18 -25 28 -22 5 -40 7 -40 3z"/>
<path d="M2372 649 c2 -9 -7 -15 -24 -17 -43 -5 -35 -29 9 -27 42 1 55 23 28
45 -14 11 -16 11 -13 -1z"/>
<path d="M2450 652 c0 -5 -9 -12 -20 -15 -17 -4 -18 -8 -8 -35 10 -25 15 -29
32 -22 26 9 33 52 12 70 -9 7 -16 8 -16 2z"/>
<path d="M370 640 c0 -5 5 -10 10 -10 6 0 10 5 10 10 0 6 -4 10 -10 10 -5 0
-10 -4 -10 -10z"/>
<path d="M870 634 c0 -10 -6 -13 -17 -10 -10 3 -29 -3 -42 -13 l-24 -19 23
-12 c21 -11 26 -10 41 8 15 19 19 19 35 7 32 -24 46 -18 42 16 -2 26 -8 32
-30 35 -20 2 -28 -2 -28 -12z"/>
<path d="M197 633 c-4 -3 -7 -17 -7 -30 0 -17 6 -23 23 -23 31 0 35 5 29 35
-4 24 -30 34 -45 18z"/>
<path d="M1411 606 c-1 -29 2 -37 10 -29 8 8 8 19 1 40 -10 28 -10 28 -11 -11z"/>
<path d="M3795 623 c-4 -13 -12 -23 -17 -23 -6 0 -5 -7 2 -15 9 -10 9 -15 1
-15 -19 0 -12 -27 8 -33 23 -6 34 35 21 79 -8 28 -9 28 -15 7z"/>
<path d="M1188 623 c7 -3 16 -2 19 1 4 3 -2 6 -13 5 -11 0 -14 -3 -6 -6z"/>
<path d="M2680 598 c0 -36 4 -35 14 5 4 16 2 27 -4 27 -5 0 -10 -14 -10 -32z"/>
<path d="M3320 612 c0 -13 -6 -22 -15 -22 -8 0 -15 5 -15 11 0 6 -10 9 -22 7
-19 -2 -24 -10 -26 -45 -2 -24 -7 -43 -12 -43 -15 0 -49 -33 -44 -42 3 -4 0
-8 -5 -8 -15 0 -14 -37 2 -43 7 -3 5 -6 -5 -6 -11 -1 -20 9 -24 24 -3 14 -13
25 -21 25 -8 0 -11 5 -8 10 3 6 1 10 -5 10 -6 0 -9 4 -6 9 7 11 -37 23 -58 15
-17 -7 -22 -34 -6 -34 15 0 12 -29 -4 -46 -19 -19 -32 -18 -16 1 10 12 10 18
0 30 -7 8 -9 15 -5 15 4 0 2 7 -5 15 -15 18 -30 11 -30 -14 0 -10 -8 -25 -17
-32 -11 -10 -14 -10 -9 -1 5 8 -1 12 -23 12 -16 0 -33 -4 -36 -10 -3 -5 -2
-10 3 -10 7 0 32 -42 32 -55 0 -14 -33 12 -45 35 -11 21 -11 30 -2 40 10 10 8
10 -10 1 -13 -6 -23 -8 -23 -2 0 9 32 25 38 19 6 -6 41 77 42 97 0 14 -3 16
-8 7 -6 -9 -12 -6 -20 13 -14 31 -66 35 -81 6 -6 -10 -7 -21 -4 -25 3 -3 -1
-6 -10 -6 -9 0 -17 -4 -17 -10 0 -5 -7 -10 -16 -10 -8 0 -13 -4 -10 -8 2 -4
-4 -18 -14 -32 -17 -22 -19 -23 -35 -7 -23 24 -49 22 -42 -3 6 -22 -3 -26 -20
-9 -7 7 -12 6 -17 -6 -4 -10 -2 -14 6 -9 7 4 8 3 4 -4 -4 -7 -13 -12 -19 -12
-15 0 -19 53 -5 61 6 4 2 12 -11 18 -14 8 -21 21 -21 42 0 26 -3 30 -22 27
-19 -2 -23 -9 -23 -36 0 -29 -4 -34 -28 -39 -15 -3 -30 -10 -33 -14 -11 -19
-24 -8 -24 21 0 35 -22 40 -43 10 -8 -11 -18 -17 -23 -12 -4 4 -2 -1 5 -11 10
-13 16 -15 21 -6 10 15 30 3 30 -17 0 -10 8 -14 23 -12 20 3 22 -1 25 -52 3
-50 0 -59 -28 -90 -16 -18 -30 -40 -30 -47 0 -7 -4 -13 -10 -13 -5 0 -10 -9
-10 -21 0 -11 -4 -18 -9 -14 -14 8 -51 -35 -44 -51 3 -9 -2 -14 -16 -14 -12 0
-21 6 -21 14 0 8 -8 13 -17 12 -22 -4 -41 -72 -24 -89 8 -8 11 -5 11 11 0 25
12 28 29 8 10 -11 9 -16 -2 -23 -19 -11 -29 -44 -18 -61 4 -7 27 -13 49 -14
28 0 42 -5 42 -13 0 -7 6 -16 13 -19 6 -3 -44 -4 -111 -3 -104 2 -126 5 -136
19 -7 10 -16 15 -19 11 -4 -3 -7 -1 -7 5 0 7 5 12 10 12 6 0 10 8 8 17 -2 13
4 18 19 18 29 1 36 9 28 35 -5 17 -10 19 -21 9 -15 -12 -19 1 -15 49 3 31 -16
27 -34 -8 -12 -22 -23 -30 -43 -30 -16 0 -33 -5 -38 -10 -8 -8 -15 -6 -24 5
-7 8 -19 15 -27 15 -8 0 -11 4 -8 10 3 5 -3 10 -14 10 -17 0 -21 -6 -21 -30 0
-18 5 -30 13 -30 7 0 14 -14 15 -31 2 -24 -1 -30 -12 -26 -8 3 -22 -2 -32 -12
-18 -17 -20 -17 -36 2 -10 11 -18 27 -18 35 0 9 -6 12 -17 7 -15 -5 -16 -4 -5
6 6 7 12 22 12 33 0 17 -2 18 -17 4 -10 -8 -27 -14 -38 -14 -25 1 -36 -24 -18
-42 19 -20 16 -31 -9 -24 -15 3 -19 2 -14 -7 4 -6 3 -18 -4 -26 -8 -10 -48
-13 -160 -14 -146 -2 -150 -1 -150 19 0 12 4 18 10 15 5 -3 10 -1 10 5 0 7 7
10 15 7 8 -4 17 -2 20 3 4 6 15 10 26 10 16 0 18 3 9 19 -5 11 -10 31 -10 44
0 34 -28 44 -36 13 -7 -30 -41 -24 -46 8 -2 15 -11 22 -30 24 -24 3 -28 0 -28
-23 0 -20 -4 -26 -15 -21 -8 3 -15 1 -15 -5 0 -6 -5 -7 -11 -3 -8 5 -7 9 1 14
8 5 10 15 6 26 -4 10 -1 21 6 26 10 6 9 12 -6 23 -27 20 -36 19 -36 -5 0 -11
4 -20 9 -20 5 0 11 -6 14 -13 3 -8 -5 -14 -23 -15 -31 -2 -48 22 -24 36 20 11
15 87 -6 87 -8 0 -14 -7 -12 -16 2 -12 -4 -15 -21 -12 -17 3 -30 -2 -43 -19
-11 -14 -25 -23 -32 -20 -22 7 -13 -18 11 -28 21 -8 21 -9 -5 -9 -27 -1 -27
-2 -22 -48 4 -36 3 -44 -5 -33 -10 13 -11 13 -12 0 -1 -8 -1 -18 0 -23 0 -4
-9 -7 -22 -7 -19 0 -23 6 -25 34 -2 30 0 34 18 29 23 -6 27 9 6 26 -11 9 -15
8 -20 -4 -3 -9 -11 -13 -16 -10 -6 4 -9 1 -8 -6 2 -6 -2 -13 -8 -16 -6 -2 -14
7 -16 21 -4 17 -1 23 9 19 7 -3 13 0 13 7 0 6 -8 10 -18 8 -12 -3 -16 -12 -15
-31 1 -15 -1 -27 -5 -27 -13 1 -52 38 -52 49 0 6 -9 11 -20 11 -11 0 -20 -4
-20 -10 0 -5 7 -10 16 -10 13 0 15 -6 10 -28 -4 -15 -8 -35 -9 -45 -1 -16 -7
-18 -38 -13 -31 5 -37 3 -47 -19 -12 -25 -42 -26 -42 0 0 20 -37 47 -62 43
-47 -6 -27 -68 27 -81 11 -2 -4 -5 -32 -6 -30 0 -53 3 -53 9 0 6 -15 10 -33
10 -18 0 -39 6 -46 13 -11 10 -14 9 -18 -1 -3 -6 -9 -10 -14 -6 -5 3 -8 0 -7
-7 2 -6 -3 -14 -9 -16 -7 -3 -13 2 -13 11 0 9 -5 16 -11 16 -6 0 -9 -7 -5 -15
3 -8 1 -15 -3 -15 -5 0 -12 8 -16 17 -6 16 -8 17 -18 2 -10 -13 -35 -16 -139
-17 -70 0 -130 4 -133 9 -4 5 -3 19 0 30 6 18 13 20 40 16 34 -6 57 9 61 39 3
19 28 42 50 46 17 3 19 -4 19 -64 0 -38 3 -68 8 -68 4 0 7 11 7 25 0 27 25 34
60 15 14 -7 23 -6 34 6 24 23 19 36 -11 32 -20 -2 -29 2 -31 15 -3 13 3 17 25
17 22 0 25 -2 13 -10 -13 -8 -13 -10 2 -10 20 0 32 16 19 24 -5 3 -7 15 -4 25
3 10 0 22 -6 25 -17 11 -13 29 4 22 8 -3 15 -1 15 4 0 6 7 10 15 10 8 0 15 7
15 15 0 16 -17 19 -44 9 -9 -3 -13 -10 -10 -16 3 -5 -3 -12 -15 -15 -12 -3
-21 -12 -21 -20 0 -8 -4 -11 -10 -8 -5 3 -10 1 -10 -5 0 -6 -5 -8 -10 -5 -23
14 -71 14 -77 0 -7 -20 -33 -19 -49 2 -13 17 -13 17 -14 0 0 -10 -4 -16 -9
-13 -5 3 -11 -3 -14 -13 -3 -12 -18 -21 -43 -26 -22 -4 -45 -11 -51 -17 -14
-12 -43 -4 -43 12 0 5 14 10 32 10 17 0 28 3 25 6 -3 4 -2 15 4 25 9 17 7 18
-15 8 -31 -14 -127 -3 -105 13 11 7 11 11 2 15 -20 8 -15 33 6 33 12 0 23 9
27 23 8 27 22 37 54 37 20 0 22 2 10 10 -11 7 -7 10 17 10 17 0 33 -6 36 -12
2 -7 8 -10 12 -5 5 4 4 12 -2 18 -6 6 -9 19 -6 28 3 12 0 11 -12 -4 -12 -14
-19 -16 -22 -7 -6 16 -70 16 -76 0 -4 -10 -8 -9 -16 2 -16 22 -13 30 8 30 11
0 23 5 26 10 3 6 13 10 22 10 13 0 13 -3 3 -15 -11 -13 -8 -15 19 -15 21 0 31
5 31 15 0 8 -6 15 -12 15 -29 0 -41 17 -29 39 10 17 9 21 -4 21 -8 0 -14 -5
-13 -11 3 -11 -38 -19 -100 -19 -24 0 -32 -5 -33 -18 0 -9 -6 -2 -12 16 -12
31 -13 32 -35 17 -25 -18 -30 -45 -8 -45 8 0 22 -7 31 -16 9 -9 29 -18 45 -20
28 -3 28 -3 15 23 -17 32 -12 42 10 20 18 -19 20 -63 3 -70 -8 -3 -6 -6 5 -6
10 -1 17 -9 17 -22 0 -11 -4 -18 -9 -14 -5 3 -12 1 -16 -5 -4 -6 -11 -8 -16
-5 -5 4 -9 1 -9 -4 0 -6 -3 -10 -7 -10 -23 4 -43 -2 -38 -11 3 -5 -1 -10 -9
-10 -23 0 -36 -33 -35 -87 1 -75 12 -91 64 -95 6 0 22 3 37 7 21 5 26 3 25
-11 -1 -11 8 -21 23 -25 15 -5 -4 -7 -47 -5 -40 2 -79 9 -88 16 -13 10 -15 9
-15 -9 l0 -21 2355 0 2355 0 0 75 c0 41 -3 74 -7 74 -5 -1 -16 -1 -26 0 -15 1
-16 4 -7 22 7 12 18 18 26 15 10 -4 14 2 14 20 0 14 -4 22 -10 19 -5 -3 -10 3
-10 14 0 20 -17 37 -27 27 -3 -3 0 -12 6 -20 13 -15 -1 -32 -18 -22 -5 3 -11
-3 -14 -14 -6 -22 -27 -28 -27 -7 0 8 -4 7 -10 -3 -6 -10 -10 -11 -10 -2 0 27
-30 10 -46 -28 -20 -45 -34 -52 -34 -16 0 13 -3 31 -6 40 -4 11 2 19 17 25 23
10 22 10 -6 9 -28 -2 -31 -5 -27 -32 3 -24 1 -28 -7 -16 -9 13 -11 12 -11 -5
0 -17 -2 -17 -10 -5 -6 9 -13 11 -17 5 -11 -13 -86 -18 -78 -5 3 5 1 10 -6 10
-6 0 -22 11 -35 25 -21 23 -22 25 -4 25 14 0 23 11 31 40 7 22 16 40 21 40 5
0 4 -9 -2 -19 -13 -26 -13 -31 5 -31 10 0 12 6 8 17 -7 17 -6 17 20 0 33 -21
48 -22 40 -1 -5 14 -2 16 19 11 18 -5 25 -3 25 8 0 8 -8 15 -18 15 -10 0 -24
6 -31 13 -18 17 -78 37 -78 26 0 -5 -19 -9 -43 -9 l-43 0 2 -39 c1 -21 4 -43
6 -47 10 -17 19 -89 10 -76 -6 9 -16 10 -34 3 -23 -9 -25 -7 -21 10 3 10 11
19 18 19 7 0 16 7 19 16 9 23 7 31 -4 14 -12 -19 -22 -8 -24 24 0 14 -4 26 -8
26 -16 0 -7 19 10 23 16 4 16 5 0 6 -10 0 -18 6 -18 12 0 6 -8 3 -17 -6 -16
-16 -17 -16 -25 4 -7 21 -17 25 -52 21 -12 -1 -16 3 -11 10 10 16 -37 2 -47
-14 -5 -6 -8 0 -9 14 0 23 -1 23 -9 5 l-9 -20 -1 20 c-2 11 -2 23 -1 27 0 4
-6 5 -15 1 -11 -4 -12 -9 -5 -16 15 -15 14 -27 -4 -27 -8 0 -15 4 -15 9 0 5
-16 15 -35 22 -19 7 -35 17 -35 22 0 5 -7 1 -16 -7 -8 -9 -22 -16 -30 -16 -8
0 -12 -4 -9 -10 22 -35 6 -80 -29 -80 -17 0 -31 34 -20 52 4 8 3 9 -2 5 -5 -5
-9 -33 -9 -62 0 -62 -19 -84 -66 -77 -33 5 -40 22 -9 22 13 0 20 7 20 19 0 11
5 23 10 26 12 7 4 25 -11 25 -5 0 -9 -11 -9 -24 0 -23 -2 -24 -31 -14 -22 7
-27 14 -20 21 16 16 13 37 -4 37 -9 0 -24 -13 -33 -30 -25 -44 -59 -39 -53 8
2 10 -2 10 -18 0 -25 -15 -27 -28 -5 -28 8 0 13 -4 10 -9 -3 -4 1 -16 8 -26
12 -17 14 -16 35 6 18 20 23 21 31 9 11 -17 4 -30 -16 -30 -8 0 -14 -7 -14
-15 0 -8 -9 -15 -20 -15 -11 0 -20 6 -20 13 0 7 -10 17 -22 22 -13 6 -27 19
-32 31 -11 24 -96 49 -96 27 0 -15 50 -42 68 -36 7 3 10 -1 6 -11 -3 -9 -2
-16 4 -16 16 0 12 -101 -4 -107 -8 -3 -14 -9 -14 -14 0 -11 33 1 42 15 4 6 6
-2 5 -19 -2 -24 2 -31 20 -33 16 -2 20 -8 16 -20 -5 -13 -4 -15 8 -6 20 15 42
12 44 -6 2 -12 -13 -15 -76 -17 -71 -2 -79 0 -79 16 0 14 -7 18 -27 17 -16 -1
-33 -4 -39 -8 -27 -18 -87 -23 -141 -13 -17 3 -34 1 -38 -5 -8 -13 -75 -13
-75 0 0 5 6 8 13 6 6 -1 9 -1 5 1 -5 3 -8 12 -9 21 0 14 -2 13 -9 -3 -5 -11
-9 -16 -9 -11 -1 5 -8 3 -16 -4 -24 -20 -65 -19 -76 1 -5 11 -16 19 -24 19
-18 0 -19 -12 -3 -28 9 -9 0 -12 -41 -12 -32 0 -50 4 -46 10 3 5 0 7 -9 4 -10
-4 -17 2 -22 20 -3 14 -10 24 -14 21 -4 -3 -10 4 -13 15 -3 13 -14 20 -30 20
-14 0 -27 7 -31 15 -3 8 -14 15 -25 15 -12 0 -20 9 -23 25 -4 20 -1 25 14 25
11 0 17 -4 13 -9 -9 -16 12 -22 39 -11 17 6 26 6 26 0 0 -6 13 -10 29 -10 16
0 31 -6 34 -12 4 -10 7 -10 18 0 17 15 59 16 59 0 0 -9 3 -9 12 0 18 18 51 15
44 -3 -4 -10 1 -15 14 -15 11 0 20 -4 20 -10 0 -22 38 -9 44 15 7 27 26 34 26
9 0 -11 8 -14 28 -12 16 2 26 8 24 16 -1 9 5 12 20 10 17 -2 23 4 30 30 9 35
22 40 45 16 14 -14 17 -13 35 5 10 12 30 24 43 27 27 7 35 34 10 34 -9 0 -20
10 -25 22 -5 13 -9 17 -9 11 -1 -17 -24 -12 -33 7 -6 13 -7 13 -7 0 -1 -9 -11
-16 -23 -17 -18 -2 -20 0 -8 7 13 9 13 11 0 20 -12 8 -7 10 20 9 62 -2 80 1
78 12 -4 18 18 22 33 6 23 -22 49 -28 49 -11 0 9 -5 12 -12 8 -10 -5 -10 -4
-1 6 8 9 16 9 30 1 10 -6 14 -11 8 -11 -5 0 -4 -4 4 -9 10 -7 19 -4 28 7 10
14 12 14 13 2 0 -13 1 -13 11 0 8 11 12 12 16 3 3 -9 11 -8 29 4 20 13 27 14
37 3 9 -10 9 -11 -2 -5 -9 5 -12 4 -7 -3 4 -7 11 -12 16 -12 12 0 23 54 12 58
-15 5 -2 42 14 42 8 0 14 4 14 8 0 15 -28 47 -35 40 -4 -4 -16 -3 -27 3 -14 8
-26 6 -44 -6 -28 -18 -22 -39 8 -29 14 4 18 2 14 -5 -4 -6 -17 -11 -30 -11
-12 0 -28 -6 -35 -12 -8 -7 -11 -8 -8 -2 3 6 0 22 -8 37 -7 14 -10 27 -5 29 4
2 3 14 -3 28 l-11 25 -4 -27 c-2 -16 -7 -28 -12 -28 -5 0 -16 -3 -26 -7 -11
-4 -15 -3 -11 5 4 6 2 12 -5 15 -7 2 -1 3 15 1 18 -2 27 1 27 10 0 8 3 21 6
30 8 20 -17 30 -51 22 -18 -5 -25 -13 -25 -31 0 -16 -6 -25 -15 -25 -8 0 -15
-4 -15 -10 0 -5 4 -10 9 -10 5 0 13 -18 19 -40 5 -22 6 -38 2 -35 -5 3 -10 -1
-13 -7 -2 -7 -8 -10 -12 -6 -5 5 -4 18 2 31 9 19 7 27 -14 45 -14 12 -36 25
-49 28 -13 3 -24 10 -24 15 0 15 -28 10 -34 -7 -9 -25 -8 -25 32 -19 31 4 33
4 14 -5 -13 -5 -22 -16 -19 -22 5 -14 11 -14 40 -3 35 14 15 -12 -22 -29 -27
-11 -38 -22 -34 -32 3 -7 0 -14 -5 -14 -18 0 -23 19 -11 41 8 17 8 23 -1 29
-8 5 -11 19 -8 36 3 16 2 38 -2 49 -8 23 -3 45 12 45 5 0 6 -4 3 -10 -4 -6 5
-10 19 -10 14 0 26 1 26 3 0 1 -9 20 -20 42 -15 30 -20 34 -20 17z m-518 -88
c-12 -8 -22 -23 -23 -32 0 -10 -3 -12 -5 -5 -8 18 15 53 34 53 13 0 12 -3 -6
-16z m-217 -35 c8 -13 6 -15 -22 -23 -19 -6 -23 -3 -23 13 0 23 33 30 45 10z
m275 2 c0 -5 -6 -11 -12 -14 -18 -6 -39 3 -32 14 7 12 44 12 44 0z m396 -28
c-3 -3 -13 0 -22 8 -15 12 -14 14 3 20 17 6 32 -15 19 -28z m-432 -47 c-11 -5
-26 -10 -34 -11 -9 0 -16 -11 -18 -27 -3 -23 1 -28 17 -28 20 0 26 -19 24 -77
-1 -9 14 -13 43 -13 32 0 44 4 44 14 0 14 -28 15 -50 1 -15 -9 -12 11 4 24 10
9 16 9 21 1 5 -7 12 -5 23 7 18 19 82 25 82 8 0 -5 10 1 21 15 12 15 19 19 18
10 -3 -30 1 -50 11 -50 16 0 12 67 -5 74 -8 3 -15 13 -15 23 0 15 2 16 10 3 8
-13 10 -12 10 3 0 9 5 17 10 17 6 0 10 -9 10 -20 0 -11 9 -28 19 -37 14 -12
18 -24 14 -45 -5 -27 -4 -28 35 -28 33 0 40 3 35 15 -3 9 -15 15 -26 13 -33
-5 -31 20 4 41 18 11 36 17 39 13 7 -10 29 -15 64 -16 16 -1 31 -7 34 -14 3
-9 -3 -13 -14 -12 -11 1 -26 2 -34 1 -13 -1 -13 -2 0 -11 13 -9 13 -11 0 -20
-23 -15 -32 -12 -25 10 7 24 -10 27 -19 4 -11 -28 -6 -54 9 -54 9 0 15 -9 15
-22 l0 -22 16 22 c8 12 19 22 24 22 16 0 22 -47 10 -69 -13 -25 -70 -30 -70
-6 0 9 -10 15 -26 15 -14 0 -22 4 -19 10 10 17 -26 62 -47 57 -13 -4 -18 0
-18 14 0 21 -20 25 -38 7 -7 -7 -12 -8 -12 -2 0 6 -13 11 -29 11 -22 0 -29 -5
-28 -19 1 -10 5 -18 10 -18 4 0 5 -4 2 -10 -10 -16 15 -12 31 5 20 19 54 19
54 0 0 -7 -8 -19 -17 -24 -14 -9 -15 -12 -5 -19 9 -6 2 -11 -25 -15 -63 -11
-111 -8 -109 6 1 15 -4 17 -55 17 -22 0 -38 -4 -35 -9 3 -4 -7 -14 -22 -21
-27 -12 -27 -12 -4 -21 24 -9 25 -12 16 -46 -5 -18 -10 -20 -30 -13 -14 6 -24
6 -24 1 0 -5 -10 -7 -21 -4 -15 4 -27 -1 -38 -16 -11 -14 -32 -24 -59 -28 -29
-4 -43 -11 -47 -24 -5 -16 -16 -19 -66 -19 -58 0 -59 0 -53 25 5 22 3 25 -20
25 -16 0 -29 7 -33 18 -3 9 -17 29 -31 45 -22 23 -23 27 -8 27 14 0 16 3 8 13
-9 10 -6 17 8 29 10 9 21 14 24 11 3 -4 6 -1 6 5 0 6 16 14 35 18 19 3 38 11
43 18 16 18 25 76 13 76 -6 0 -11 5 -11 10 0 6 18 10 39 10 35 0 39 -2 35 -22
-2 -13 -2 -17 2 -10 3 6 17 12 31 12 20 0 23 3 15 13 -9 10 -6 24 9 55 12 23
25 39 30 36 14 -8 11 -31 -6 -38 -8 -3 -15 -11 -14 -18 0 -10 2 -10 6 0 8 19
30 14 36 -8 3 -13 -2 -28 -15 -40 -31 -28 -13 -44 25 -23 40 22 48 33 41 55
-5 18 8 51 33 80 12 13 20 14 45 6 28 -10 29 -12 12 -22z m281 14 c-3 -5 -11
-10 -16 -10 -6 0 -7 5 -4 10 3 6 11 10 16 10 6 0 7 -4 4 -10z m163 -11 c2 -10
1 -11 -5 -2 -14 19 -36 -1 -28 -26 4 -12 2 -21 -4 -21 -15 0 -14 57 2 63 18 8
30 3 35 -14z m262 11 c-20 -13 -33 -13 -25 0 3 6 14 10 23 10 15 0 15 -2 2
-10z m-970 -20 c-6 -11 -12 -20 -14 -20 -3 0 -1 23 3 38 1 1 6 2 11 2 7 0 7
-6 0 -20z m418 -11 c-3 -8 -7 -3 -11 10 -4 17 -3 21 5 13 5 -5 8 -16 6 -23z
m-258 17 c0 -3 -4 -8 -10 -11 -5 -3 -10 -1 -10 4 0 6 5 11 10 11 6 0 10 -2 10
-4z m-134 -32 c-30 -21 -42 -17 -15 5 13 11 26 17 29 14 3 -2 -4 -11 -14 -19z
m804 6 c-8 -5 -19 -10 -25 -10 -5 0 -3 5 5 10 8 5 20 10 25 10 6 0 3 -5 -5
-10z m270 0 c0 -5 -8 -10 -17 -10 -15 0 -16 2 -3 10 19 12 20 12 20 0z m-390
-10 c0 -5 -5 -10 -11 -10 -5 0 -7 5 -4 10 3 6 8 10 11 10 2 0 4 -4 4 -10z
m330 -18 c0 -15 -2 -15 -10 -2 -13 20 -13 33 0 25 6 -3 10 -14 10 -23z m-724
-24 c4 -7 3 -8 -4 -4 -7 4 -12 2 -12 -3 0 -6 -9 -11 -20 -11 -35 0 -20 27 17
29 6 1 15 -4 19 -11z m1162 6 c17 -5 22 -13 22 -41 0 -28 -3 -34 -16 -29 -8 3
-12 2 -9 -4 4 -6 -8 -10 -27 -10 -25 0 -29 3 -18 10 12 8 10 10 -8 10 -13 0
-20 -4 -17 -10 11 -17 -11 -11 -28 8 -20 22 -13 32 21 32 15 0 26 7 29 20 6
21 14 23 51 14z m-731 -19 c0 -8 -4 -15 -8 -15 -11 0 -20 16 -12 24 11 11 20
7 20 -9z m-6 -25 c23 -13 25 -36 3 -44 -25 -10 -34 -7 -28 9 4 10 0 15 -15 15
-12 0 -21 6 -21 15 0 17 32 20 61 5z m903 -6 c3 -8 2 -12 -4 -9 -6 3 -10 10
-10 16 0 14 7 11 14 -7z m-30 -19 c-4 -8 -15 -15 -26 -15 -17 0 -18 -2 -4 -15
8 -8 29 -18 46 -21 26 -6 32 -3 37 15 3 11 9 21 13 21 13 0 20 -29 9 -36 -6
-3 -8 -13 -4 -21 3 -9 -2 -27 -10 -40 -13 -20 -19 -22 -31 -12 -8 6 -14 8 -15
3 0 -5 -4 1 -9 14 -5 12 -17 22 -25 22 -9 0 -13 -4 -10 -10 3 -6 -1 -7 -9 -4
-9 3 -16 2 -16 -4 0 -14 -62 -24 -74 -12 -17 17 -27 11 -16 -10 6 -11 17 -20
24 -20 8 0 16 -9 19 -20 4 -17 0 -20 -29 -20 -19 0 -34 -4 -34 -10 0 -16 -18
-11 -22 6 -2 13 -8 11 -30 -10 -16 -14 -28 -30 -28 -36 0 -5 -5 -10 -11 -10
-6 0 -8 7 -5 16 5 12 2 15 -9 10 -21 -8 -54 14 -48 31 3 7 18 13 34 13 16 0
29 5 29 10 0 6 9 10 20 10 17 0 18 3 10 26 -13 33 2 54 39 54 20 0 23 2 11 10
-23 15 -3 24 25 12 31 -14 75 -16 75 -3 0 5 -10 7 -21 4 -19 -5 -20 -4 -10 16
7 11 17 21 24 21 8 0 7 3 -2 9 -11 7 -7 10 15 14 62 9 74 8 68 -8z m-295 -38
c1 -5 -3 -5 -9 -2 -5 3 -10 16 -9 28 0 21 1 21 9 2 5 -11 9 -24 9 -28z m51 33
c0 -5 -4 -10 -9 -10 -5 0 -8 -7 -7 -16 0 -9 -5 -19 -13 -22 -10 -3 -12 0 -8
12 4 9 1 16 -5 16 -7 0 -6 5 2 15 14 17 40 20 40 5z m-520 -25 c0 -15 -19 -24
-37 -17 -22 8 -14 27 12 28 15 1 25 -4 25 -11z m-90 -5 c0 -5 -4 -10 -10 -10
-5 0 -10 5 -10 10 0 6 5 10 10 10 6 0 10 -4 10 -10z m-2004 -37 c-3 -4 -18 0
-32 7 -23 13 -23 15 -7 21 18 6 51 -17 39 -28z m2647 10 c-7 -2 -19 -2 -25 0
-7 3 -2 5 12 5 14 0 19 -2 13 -5z m-147 -36 c3 -3 12 -3 20 0 8 3 14 0 14 -7
0 -6 -8 -10 -17 -9 -10 1 -29 -3 -43 -8 -30 -13 -40 -8 -40 16 0 15 7 18 30
16 17 -1 33 -5 36 -8z m-2535 -4 c2 -22 8 -50 14 -70 5 -17 1 -24 -22 -35 -19
-9 -28 -21 -27 -36 1 -39 -21 -17 -27 26 -6 47 -6 47 24 30 19 -10 20 -9 9 4
-17 21 -3 88 19 88 5 0 9 -3 10 -7z m1773 -1 c2 -4 -4 -9 -15 -9 -11 -1 -17 2
-14 8 7 11 22 12 29 1z m603 -11 c15 -25 -3 -43 -35 -34 -25 6 -30 33 -7 33 8
0 15 5 15 10 0 16 14 11 27 -9z m1001 -6 c10 -21 9 -27 -3 -31 -8 -4 -12 -11
-9 -16 4 -6 1 -9 -7 -6 -19 6 -25 78 -6 78 7 0 19 -11 25 -25z m-4533 -15 c-3
-5 -13 -10 -21 -10 -8 0 -14 5 -14 10 0 6 9 10 21 10 11 0 17 -4 14 -10z
m3741 -2 c-7 -34 -31 -68 -48 -68 -27 0 -32 25 -11 54 18 26 63 36 59 14z
m595 -18 c10 0 19 7 19 15 0 8 8 15 18 15 15 0 15 -2 2 -11 -11 -8 -12 -12 -2
-16 13 -5 17 -33 4 -33 -4 0 -9 -14 -10 -31 -1 -18 -5 -36 -8 -40 -7 -12 -74
-11 -74 1 0 5 -16 9 -35 8 -19 -1 -35 -5 -35 -10 0 -12 -30 -10 -31 2 -1 6 -2
14 -3 19 -2 18 -15 23 -41 17 -14 -4 -23 -11 -20 -16 3 -5 -4 -8 -15 -7 -11 1
-20 7 -20 15 0 22 36 53 53 46 11 -4 19 0 23 10 11 28 24 18 30 -24 6 -35 9
-38 25 -29 11 5 19 16 19 23 0 8 12 28 27 44 22 26 28 28 40 16 8 -8 23 -14
34 -14z m-2321 -11 c9 -16 8 -19 -12 -15 -13 1 -23 9 -24 17 -1 34 17 34 36
-2z m-1780 11 c0 -5 -5 -10 -11 -10 -5 0 -7 5 -4 10 3 6 8 10 11 10 2 0 4 -4
4 -10z m3317 -14 c0 -8 -6 -12 -14 -9 -7 3 -13 9 -13 14 0 5 6 9 13 9 8 0 14
-6 14 -14z m-2144 -10 c4 -10 1 -13 -9 -9 -15 6 -19 23 -5 23 5 0 11 -7 14
-14z m-1154 1 c-2 -1 -12 -9 -21 -16 -15 -12 -18 -11 -18 3 0 10 8 16 22 16
12 0 19 -1 17 -3z m1034 -16 c6 -26 1 -30 -30 -22 -35 9 -41 28 -11 34 13 2
26 5 29 6 4 0 9 -8 12 -18z m57 3 c0 -12 -4 -12 -20 -4 -11 6 -20 12 -20 13 0
2 9 3 20 4 12 1 20 -4 20 -13z m-419 -3 c7 11 9 9 9 -7 0 -12 -6 -21 -15 -21
-9 0 -15 9 -14 21 0 13 3 16 6 7 5 -11 7 -11 14 0z m1736 -24 c2 -30 -24 -50
-60 -45 -34 5 -29 42 6 46 16 2 27 9 27 18 0 27 25 9 27 -19z m1796 19 c6 -16
41 -11 66 8 12 9 13 8 8 -6 -4 -12 0 -18 14 -20 18 -3 19 -5 6 -23 -12 -16
-30 -20 -91 -23 -42 -2 -76 -1 -76 4 0 15 45 74 56 74 7 0 14 -6 17 -14z
m-2463 -21 c0 -18 -5 -25 -20 -25 -11 0 -20 7 -20 16 0 8 5 12 10 9 6 -3 13 1
16 9 9 23 14 20 14 -9z m-1933 9 c-3 -3 -12 -4 -19 -1 -8 3 -5 6 6 6 11 1 17
-2 13 -5z m1881 -27 c3 -26 1 -28 -25 -25 -22 2 -29 9 -31 31 -3 26 -1 28 25
25 22 -2 29 -9 31 -31z m2097 23 c-3 -5 -1 -10 5 -10 6 0 8 -4 5 -10 -11 -18
-35 -11 -35 10 0 11 7 20 16 20 8 0 12 -4 9 -10z m-2985 -9 c0 -5 3 -16 6 -25
5 -14 -3 -16 -55 -16 -34 0 -61 4 -61 9 0 15 23 29 55 34 52 7 55 7 55 -2z
m694 3 c9 -3 16 -15 16 -25 0 -16 -7 -19 -41 -19 -25 0 -38 4 -34 10 4 6 11 8
16 4 6 -3 13 3 16 15 6 24 5 23 27 15z m2111 -24 c13 0 27 -4 30 -10 4 -6 -29
-10 -92 -9 -76 0 -92 3 -73 10 14 6 37 8 52 5 17 -3 33 0 40 8 7 8 15 10 16 5
2 -5 14 -9 27 -9z m-2632 -17 c-7 -2 -19 -2 -25 0 -7 3 -2 5 12 5 14 0 19 -2
13 -5z"/>
<path d="M2537 313 c-4 -3 -7 -11 -7 -17 0 -6 5 -5 12 2 6 6 9 14 7 17 -3 3
-9 2 -12 -2z"/>
<path d="M2907 264 c-5 -30 5 -44 36 -44 18 0 21 13 7 45 -5 12 -9 14 -9 6 -1
-11 -4 -10 -15 4 -12 17 -13 16 -19 -11z"/>
<path d="M2747 259 c-3 -12 -10 -18 -17 -14 -7 5 -9 -2 -4 -22 10 -42 13 -44
34 -23 14 14 18 28 14 50 -7 35 -19 39 -27 9z"/>
<path d="M2651 233 c-1 -13 -1 -26 -1 -30 0 -4 6 -8 15 -9 10 -1 15 6 15 22 0
14 -4 23 -9 20 -5 -4 -12 0 -14 6 -3 7 -6 3 -6 -9z"/>
<path d="M2525 221 c-3 -2 -5 -13 -5 -23 0 -10 -6 -27 -12 -38 -11 -16 -9 -22
6 -33 13 -10 17 -22 14 -40 -3 -15 -1 -27 3 -27 9 0 13 15 10 33 -3 17 27 35
51 30 15 -3 34 0 45 5 17 10 17 11 -2 17 -11 4 -30 11 -43 16 l-23 9 20 22
c12 12 19 24 16 26 -7 7 -75 9 -80 3z"/>
<path d="M2410 156 c1 -39 52 -48 58 -11 2 16 -3 20 -28 21 -16 1 -30 -4 -30
-10z"/>
<path d="M4005 330 c3 -5 1 -10 -4 -10 -6 0 -11 -4 -11 -10 0 -5 7 -6 17 -3
11 4 14 3 9 -5 -10 -17 9 -15 24 3 10 12 10 15 -4 15 -9 0 -16 5 -16 10 0 6
-5 10 -11 10 -5 0 -7 -4 -4 -10z"/>
<path d="M4117 235 c3 -8 9 -12 14 -9 12 7 11 11 -5 17 -10 4 -13 1 -9 -8z"/>
<path d="M4058 193 c6 -2 18 -2 25 0 6 3 1 5 -13 5 -14 0 -19 -2 -12 -5z"/>
<path d="M3970 180 c17 -11 20 -32 5 -42 -5 -4 1 -8 14 -8 20 0 22 4 17 24 -4
15 -1 26 7 29 6 3 -4 6 -23 6 -26 1 -31 -2 -20 -9z"/>
<path d="M3168 615 c-3 -3 -16 -8 -28 -10 -26 -5 -47 -22 -38 -30 3 -4 22 -3
42 0 26 5 36 12 36 26 0 20 -3 23 -12 14z"/>
<path d="M4110 610 c0 -5 7 -10 15 -10 8 0 15 5 15 10 0 6 -7 10 -15 10 -8 0
-15 -4 -15 -10z"/>
<path d="M3588 573 c-23 -43 -23 -66 0 -86 12 -11 22 -13 32 -7 8 5 11 10 6
10 -5 0 -1 9 8 19 16 18 16 22 2 48 -28 51 -30 52 -48 16z"/>
<path d="M3861 587 c-12 -15 -15 -38 -12 -77 l2 -25 9 23 c5 12 16 22 24 22
21 0 28 15 20 45 -7 27 -25 33 -43 12z"/>
<path d="M4513 569 c-3 -16 -9 -29 -14 -29 -5 0 -9 -5 -9 -11 0 -6 12 -9 28
-7 15 2 26 8 25 16 -2 6 4 12 12 12 24 0 17 24 -10 37 -24 11 -26 10 -32 -18z"/>
<path d="M4297 543 c-15 -25 -26 -48 -23 -50 3 -3 22 11 42 31 26 25 41 33 48
26 16 -16 44 -12 55 8 9 15 12 15 21 2 6 -9 10 -10 10 -3 0 18 -13 23 -72 27
l-53 4 -28 -45z"/>
<path d="M93 565 c6 -17 57 -18 57 -2 0 9 -10 14 -30 13 -16 -1 -28 -5 -27
-11z"/>
<path d="M23 530 c2 -38 5 -45 22 -45 17 0 20 8 23 45 2 39 0 43 -11 28 -12
-15 -14 -15 -25 0 -10 14 -11 9 -9 -28z"/>
<path d="M270 551 c0 -10 -7 -35 -16 -56 -8 -20 -11 -34 -6 -31 6 3 13 -2 16
-11 17 -42 40 37 28 95 -5 27 -22 30 -22 3z"/>
<path d="M1805 560 c3 -5 8 -10 11 -10 2 0 4 5 4 10 0 6 -5 10 -11 10 -5 0 -7
-4 -4 -10z"/>
<path d="M2735 560 c-3 -5 1 -10 10 -10 9 0 13 5 10 10 -3 6 -8 10 -10 10 -2
0 -7 -4 -10 -10z"/>
<path d="M675 541 c-3 -6 -10 -9 -15 -6 -4 3 -10 -9 -12 -25 -4 -24 -2 -27 9
-19 10 9 13 7 14 -7 0 -13 5 -9 17 14 11 23 13 35 5 43 -8 8 -13 8 -18 0z"/>
<path d="M3390 540 c0 -5 5 -10 10 -10 6 0 10 5 10 10 0 6 -4 10 -10 10 -5 0
-10 -4 -10 -10z"/>
<path d="M740 526 c0 -9 7 -12 21 -9 16 4 17 8 7 14 -19 13 -28 11 -28 -5z"/>
<path d="M807 533 c-4 -3 -7 -15 -7 -25 0 -16 3 -16 20 -6 29 19 38 -1 11 -24
-19 -15 -22 -21 -12 -28 10 -6 11 -12 2 -26 -6 -11 -11 -13 -11 -6 0 18 -20
15 -20 -4 0 -14 -3 -14 -15 -4 -11 9 -15 9 -15 1 0 -7 -4 -10 -9 -6 -5 3 -12
1 -16 -5 -4 -6 6 -10 24 -10 37 0 40 -16 6 -32 -14 -6 -25 -14 -25 -18 0 -11
51 -3 63 9 6 6 19 11 29 11 14 0 17 5 12 24 -4 16 -1 25 10 29 19 8 21 33 4
40 -10 3 -10 9 0 26 17 29 15 36 -13 49 -30 14 -30 14 -38 5z"/>
<path d="M3691 513 c0 -16 3 -22 6 -15 2 6 11 12 19 12 8 0 14 7 14 15 0 8 -9
15 -20 15 -15 0 -20 -6 -19 -27z"/>
<path d="M3750 510 c0 -13 7 -20 20 -20 23 0 26 10 8 28 -18 18 -28 15 -28 -8z"/>
<path d="M3965 516 c-10 -7 -15 -17 -12 -22 3 -6 1 -16 -4 -24 -8 -12 -12 -12
-16 -2 -2 6 -12 12 -20 12 -13 0 -13 -3 -3 -15 11 -13 10 -14 -4 -9 -19 7 -21
-7 -4 -24 24 -24 43 -12 66 39 25 57 24 65 -3 45z"/>
<path d="M587 513 c-3 -5 -5 -32 -4 -61 2 -28 -2 -54 -8 -56 -5 -2 0 -5 12 -5
26 -1 36 26 31 84 -3 36 -20 56 -31 38z"/>
<path d="M1751 504 c0 -11 3 -14 6 -6 3 7 2 16 -1 19 -3 4 -6 -2 -5 -13z"/>
<path d="M913 499 c-9 -11 -8 -19 3 -33 11 -16 16 -17 29 -6 19 16 19 30 1 30
-8 0 -16 5 -18 11 -3 8 -7 7 -15 -2z"/>
<path d="M4507 497 c-2 -7 -19 -10 -40 -9 -34 3 -37 1 -37 -23 0 -15 4 -24 10
-20 6 3 10 -1 10 -9 0 -8 -9 -17 -19 -21 -22 -7 -18 -35 5 -35 8 0 14 -8 14
-17 0 -13 3 -14 12 -5 10 10 10 17 0 32 -11 18 -10 20 18 20 20 0 30 5 30 15
0 9 9 15 23 14 16 -1 18 -2 5 -6 -22 -5 -22 -13 -5 -38 19 -26 38 -10 30 25
-6 33 -5 34 31 20 16 -6 27 -6 31 0 13 22 20 7 20 -44 0 -43 -3 -53 -14 -46
-19 10 -52 1 -74 -21 -16 -17 -16 -19 -2 -19 9 0 13 -4 10 -10 -4 -6 8 -10 30
-10 22 0 34 4 30 10 -3 6 1 10 9 10 10 0 14 -9 13 -24 -1 -14 3 -25 8 -25 6 0
9 7 7 16 -3 12 2 14 18 10 19 -5 21 -2 16 16 -3 12 -6 27 -6 34 0 6 -8 14 -17
16 -13 3 -12 5 5 6 28 1 64 31 38 31 -9 0 -17 7 -17 15 -5 53 -21 69 -65 62
-29 -5 -34 -4 -21 4 9 5 17 16 17 24 0 18 -117 20 -123 2z m-17 -67 c0 -5 -4
-10 -10 -10 -5 0 -10 5 -10 10 0 6 5 10 10 10 6 0 10 -4 10 -10z m190 0 c0 -5
-4 -10 -10 -10 -5 0 -10 5 -10 10 0 6 5 10 10 10 6 0 10 -4 10 -10z"/>
<path d="M2950 485 c14 -17 30 -20 30 -4 0 5 -4 7 -10 4 -5 -3 -10 -1 -10 4 0
6 -5 11 -11 11 -8 0 -8 -5 1 -15z"/>
<path d="M2195 480 c-3 -5 -1 -10 4 -10 6 0 11 5 11 10 0 6 -2 10 -4 10 -3 0
-8 -4 -11 -10z"/>
<path d="M3800 479 c0 -5 5 -7 10 -4 6 3 10 8 10 11 0 2 -4 4 -10 4 -5 0 -10
-5 -10 -11z"/>
<path d="M4380 480 c0 -6 -7 -10 -15 -10 -8 0 -15 -7 -15 -16 0 -13 -7 -15
-35 -11 -37 6 -60 -11 -27 -20 34 -8 15 -36 -20 -29 -18 3 -27 2 -23 -4 3 -6
-3 -10 -14 -10 -12 0 -21 -5 -21 -11 0 -7 10 -9 25 -7 14 3 25 1 25 -3 0 -5
15 -9 33 -8 29 0 30 1 10 9 -38 15 -26 23 27 18 33 -3 56 -1 68 8 9 7 13 14 8
14 -5 0 -3 6 3 14 14 17 5 62 -15 70 -8 3 -14 1 -14 -4z"/>
<path d="M4670 480 c8 -5 22 -10 30 -10 13 0 13 1 0 10 -8 5 -22 10 -30 10
-13 0 -13 -1 0 -10z"/>
<path d="M3770 465 c0 -8 6 -15 13 -15 7 0 18 -9 25 -20 10 -17 10 -20 -4 -20
-9 0 -14 -7 -12 -17 2 -9 6 -16 11 -15 4 1 19 2 35 2 17 0 23 3 14 8 -9 6 -10
15 -3 33 5 13 10 18 10 12 1 -7 5 -13 9 -13 5 0 7 14 4 30 -2 17 -8 30 -13 30
-5 0 -6 -6 -3 -14 7 -17 -29 -16 -64 3 -18 10 -22 9 -22 -4z"/>
<path d="M505 460 c3 -5 12 -7 20 -3 21 7 19 13 -6 13 -11 0 -18 -4 -14 -10z"/>
<path d="M306 433 c-9 -22 -3 -25 29 -13 29 11 27 22 -4 27 -11 1 -22 -5 -25
-14z"/>
<path d="M370 435 c0 -8 2 -15 4 -15 2 0 6 7 10 15 3 8 1 15 -4 15 -6 0 -10
-7 -10 -15z"/>
<path d="M430 424 c0 -8 5 -12 10 -9 6 3 10 10 10 16 0 5 -4 9 -10 9 -5 0 -10
-7 -10 -16z"/>
<path d="M3981 421 c-9 -16 -8 -18 9 -14 21 6 26 18 11 28 -6 3 -15 -3 -20
-14z"/>
<path d="M529 423 c-22 -5 -33 -43 -12 -43 8 0 11 5 8 10 -3 6 4 14 16 18 24
9 14 21 -12 15z"/>
<path d="M690 395 c0 -8 7 -15 16 -15 14 0 14 3 4 15 -7 8 -14 15 -16 15 -2 0
-4 -7 -4 -15z"/>
<path d="M3890 400 c0 -5 9 -10 21 -10 11 0 17 5 14 10 -3 6 -13 10 -21 10 -8
0 -14 -4 -14 -10z"/>
<path d="M4586 392 c-4 -13 -5 -26 -2 -29 10 -11 18 4 14 29 l-4 23 -8 -23z"/>
<path d="M3737 386 c-3 -8 1 -20 8 -26 8 -7 12 -16 9 -21 -3 -5 0 -17 6 -26 9
-14 10 -10 6 22 -3 22 -6 46 -6 53 0 17 -17 15 -23 -2z"/>
<path d="M4610 389 c0 -5 5 -7 10 -4 6 3 10 8 10 11 0 2 -4 4 -10 4 -5 0 -10
-5 -10 -11z"/>
<path d="M625 381 c-6 -11 9 -23 19 -14 9 9 7 23 -3 23 -6 0 -12 -4 -16 -9z"/>
<path d="M350 365 c0 -8 -9 -15 -20 -15 -27 0 -25 -27 3 -36 12 -4 25 -12 30
-18 5 -8 9 -8 15 0 4 6 13 13 21 16 12 3 10 9 -7 26 -12 12 -22 27 -22 32 0 6
-4 10 -10 10 -5 0 -10 -7 -10 -15z"/>
<path d="M505 360 c-3 -5 -1 -10 4 -10 6 0 11 -7 11 -15 0 -8 7 -15 15 -15 19
0 19 14 -1 34 -18 19 -21 19 -29 6z"/>
<path d="M20 350 c0 -5 9 -10 20 -10 11 0 20 5 20 10 0 6 -9 10 -20 10 -11 0
-20 -4 -20 -10z"/>
<path d="M467 343 c-4 -3 -7 -11 -7 -17 0 -6 5 -5 12 2 6 6 9 14 7 17 -3 3 -9
2 -12 -2z"/>
<path d="M642 343 c-10 -4 -10 -8 -1 -19 8 -10 8 -14 0 -14 -6 0 -11 -5 -11
-11 0 -6 9 -8 23 -4 17 5 19 4 7 -4 -8 -6 -25 -11 -37 -11 -13 0 -23 -4 -23
-10 0 -5 11 -10 25 -10 14 0 25 4 25 9 0 5 11 12 25 15 18 5 25 13 25 30 0 15
7 26 18 29 10 3 6 5 -10 6 -16 0 -27 -2 -27 -6 3 -21 -2 -33 -12 -28 -6 4 -8
13 -5 21 6 14 0 16 -22 7z"/>
<path d="M950 332 c0 -8 -6 -20 -14 -27 -12 -12 -15 -12 -20 0 -5 13 -9 13
-26 3 -11 -7 -20 -21 -20 -31 0 -10 -5 -27 -10 -38 -9 -15 -7 -21 5 -25 8 -3
22 -3 31 0 13 5 14 9 4 21 -10 12 -10 15 3 15 9 0 20 8 26 17 5 10 13 14 17
10 5 -5 2 -12 -6 -17 -18 -11 -22 -50 -6 -50 19 0 52 27 44 36 -4 4 0 13 10
21 16 14 16 14 -2 9 -14 -5 -17 -2 -12 10 3 8 -1 25 -9 37 -8 12 -15 16 -15 9z"/>
<path d="M1576 324 c-13 -33 -6 -62 15 -67 15 -4 19 -2 15 9 -3 8 1 14 8 14 8
0 17 7 20 16 9 23 8 24 -15 24 -11 0 -17 5 -14 10 3 6 0 10 -8 10 -8 0 -18 -7
-21 -16z"/>
<path d="M3445 330 c3 -5 8 -10 11 -10 2 0 4 5 4 10 0 6 -5 10 -11 10 -5 0 -7
-4 -4 -10z"/>
<path d="M2388 323 c-31 -5 -61 -33 -34 -33 9 0 16 5 16 10 0 6 9 10 19 10 11
0 23 5 26 10 3 6 5 9 3 9 -2 -1 -15 -4 -30 -6z"/>
<path d="M584 305 c-10 -8 -14 -15 -7 -15 19 0 43 11 43 21 0 13 -14 11 -36
-6z"/>
<path d="M720 304 c0 -9 5 -12 12 -8 7 5 9 0 6 -14 -3 -11 1 -30 9 -41 12 -19
12 -21 -1 -21 -9 0 -16 -8 -16 -17 0 -11 3 -14 8 -7 10 15 52 25 52 12 0 -6
-8 -17 -17 -24 -16 -12 -14 -13 17 -8 45 8 50 13 43 46 -3 18 -12 28 -27 30
-17 2 -21 9 -19 38 1 19 -1 29 -3 23 -3 -7 -12 -13 -20 -13 -9 0 -12 5 -9 10
3 6 -3 10 -14 10 -12 0 -21 -7 -21 -16z m70 -64 c0 -5 -4 -10 -9 -10 -6 0 -13
5 -16 10 -3 6 1 10 9 10 9 0 16 -4 16 -10z"/>
<path d="M450 301 c0 -5 6 -12 13 -14 9 -4 8 -8 -3 -16 -9 -7 -10 -11 -3 -11
17 0 24 15 17 34 -7 17 -24 22 -24 7z"/>
<path d="M1188 299 c-26 -14 -22 -32 5 -23 29 9 33 12 21 24 -5 5 -16 5 -26
-1z"/>
<path d="M520 277 c0 -9 -4 -17 -9 -17 -5 0 -7 -8 -4 -19 3 -12 11 -17 23 -14
27 7 30 25 9 47 -17 17 -19 18 -19 3z"/>
<path d="M4527 264 c-3 -18 -1 -22 8 -14 6 5 15 7 18 3 4 -3 7 1 7 9 0 27 -27
29 -33 2z"/>
<path d="M295 260 c-10 -31 13 -52 46 -45 20 5 32 1 48 -16 25 -27 38 -20 19
10 -7 12 -23 21 -36 21 -13 0 -21 4 -18 8 5 9 -29 42 -43 42 -6 0 -13 -9 -16
-20z m33 -18 c6 -18 -15 -14 -22 4 -4 10 -1 14 6 12 6 -2 14 -10 16 -16z"/>
<path d="M375 270 c-4 -6 5 -10 19 -10 14 0 26 5 26 10 0 6 -9 10 -19 10 -11
0 -23 -4 -26 -10z"/>
<path d="M1116 264 c-3 -8 -2 -13 3 -9 5 3 11 0 13 -7 3 -7 7 -8 10 -3 3 6 0
15 -7 22 -10 10 -14 9 -19 -3z"/>
<path d="M702 248 c6 -18 28 -21 28 -4 0 9 -7 16 -16 16 -9 0 -14 -5 -12 -12z"/>
<path d="M4424 251 c4 -6 2 -11 -3 -11 -6 0 -11 -7 -11 -15 0 -9 9 -15 21 -15
15 0 20 5 17 22 -2 12 -9 23 -17 26 -8 3 -11 0 -7 -7z"/>
<path d="M470 240 c0 -5 -11 -10 -24 -10 -14 0 -27 -4 -30 -9 -7 -11 39 -20
65 -14 22 6 26 43 4 43 -8 0 -15 -4 -15 -10z"/>
<path d="M3470 206 c0 -33 2 -37 15 -26 19 15 19 21 0 46 -13 18 -14 16 -15
-20z"/>
<path d="M153 213 c9 -2 17 -11 17 -19 0 -8 4 -14 9 -14 5 0 7 9 4 20 -3 13
-13 20 -27 19 -17 -1 -17 -2 -3 -6z"/>
<path d="M277 201 c3 -12 9 -21 14 -21 14 0 11 16 -5 29 -12 10 -13 8 -9 -8z"/>
<path d="M2215 210 c-8 -13 4 -32 16 -25 12 8 12 35 0 35 -6 0 -13 -4 -16 -10z"/>
<path d="M650 196 c0 -8 4 -16 9 -18 4 -1 11 -20 15 -40 5 -30 4 -38 -8 -38
-8 0 -16 5 -18 12 -3 7 -7 6 -11 -5 -5 -14 -1 -17 23 -17 17 0 30 -4 30 -10 0
-15 29 -12 46 4 22 23 16 61 -15 95 -30 32 -71 42 -71 17z"/>
<path d="M903 180 c-3 -11 -12 -20 -19 -20 -8 0 -14 -9 -14 -21 0 -16 4 -19
19 -14 14 4 20 1 23 -14 3 -20 3 -20 28 0 16 14 19 19 8 15 -13 -4 -18 0 -18
14 0 11 5 20 10 20 7 0 7 6 0 20 -6 11 -15 20 -21 20 -6 0 -13 -9 -16 -20z"/>
<path d="M950 189 c0 -5 5 -7 10 -4 6 3 10 8 10 11 0 2 -4 4 -10 4 -5 0 -10
-5 -10 -11z"/>
<path d="M1728 168 c4 -17 0 -19 -24 -18 -54 4 -64 0 -70 -25 -3 -14 -10 -25
-15 -25 -5 0 -9 -7 -9 -15 0 -20 26 -19 34 0 3 9 11 15 18 14 26 -3 37 1 41
19 3 9 4 0 3 -20 0 -21 4 -38 9 -39 6 0 14 -7 18 -15 7 -12 12 -11 26 8 35 45
38 108 5 108 -8 0 -14 4 -14 9 0 5 -6 11 -14 14 -10 4 -12 0 -8 -15z"/>
<path d="M1585 170 c-3 -5 1 -10 9 -10 9 0 16 5 16 10 0 6 -4 10 -9 10 -6 0
-13 -4 -16 -10z"/>
<path d="M3451 138 c-18 -14 -20 -18 -7 -18 14 0 15 -3 5 -22 -12 -22 -11 -22
7 -8 10 8 21 18 24 21 3 4 15 9 28 10 32 5 29 23 -6 30 -20 4 -36 0 -51 -13z"/>
<path d="M1925 130 c3 -5 0 -10 -6 -12 -7 -2 -10 -9 -8 -16 3 -7 12 -5 28 7
23 18 23 18 2 24 -11 3 -19 1 -16 -3z"/>
<path d="M2253 122 c-22 -3 -33 -22 -13 -22 6 0 10 -7 10 -16 0 -14 1 -14 16
0 21 22 14 42 -13 38z"/>
<path d="M3017 116 c-6 -16 2 -28 14 -20 12 7 11 34 0 34 -5 0 -11 -6 -14 -14z"/>
<path d="M3350 120 c-10 -6 -9 -13 3 -31 22 -30 57 -36 57 -9 0 12 -7 20 -17
20 -14 0 -15 2 -5 9 11 6 9 9 -6 13 -11 3 -25 2 -32 -2z"/>
<path d="M3106 103 c5 -5 12 -12 16 -18 4 -6 8 -2 8 8 0 9 -7 17 -17 17 -9 0
-12 -3 -7 -7z"/>
</g>
</svg>
